<?xml version="1.0" standalone="no"?>
<!DOCTYPE svg PUBLIC "-//W3C//DTD SVG 1.1//EN" "http://www.w3.org/Graphics/SVG/1.1/DTD/svg11.dtd" >
<svg xmlns="http://www.w3.org/2000/svg">
<metadata>
Created by FontForge 20120731 at Wed Feb 15 09:13:21 2017
 By admin
</metadata>
<defs>
<font id="iconfont" horiz-adv-x="1024" >
  <font-face 
    font-family="iconfont"
    font-weight="500"
    font-stretch="normal"
    units-per-em="1024"
    panose-1="2 0 6 3 0 0 0 0 0 0"
    ascent="896"
    descent="-128"
    x-height="792"
    bbox="-1 -243 1466 896.568"
    underline-thickness="0"
    underline-position="0"
    unicode-range="U+0078-EB8E"
  />
<missing-glyph 
 />
    <glyph glyph-name=".notdef" 
 />
    <glyph glyph-name=".notdef" 
 />
    <glyph glyph-name=".null" horiz-adv-x="0" 
 />
    <glyph glyph-name="nonmarkingreturn" horiz-adv-x="341" 
 />
    <glyph glyph-name="x" unicode="x" horiz-adv-x="1001" 
d="M281 543q-27 -1 -53 -1h-83q-18 0 -36.5 -6t-32.5 -18.5t-23 -32t-9 -45.5v-76h912v41q0 16 -0.5 30t-0.5 18q0 13 -5 29t-17 29.5t-31.5 22.5t-49.5 9h-133v-97h-438v97zM955 310v-52q0 -23 0.5 -52t0.5 -58t-10.5 -47.5t-26 -30t-33 -16t-31.5 -4.5q-14 -1 -29.5 -0.5
t-29.5 0.5h-32l-45 128h-439l-44 -128h-29h-34q-20 0 -45 1q-25 0 -41 9.5t-25.5 23t-13.5 29.5t-4 30v167h911zM163 247q-12 0 -21 -8.5t-9 -21.5t9 -21.5t21 -8.5q13 0 22 8.5t9 21.5t-9 21.5t-22 8.5zM316 123q-8 -26 -14 -48q-5 -19 -10.5 -37t-7.5 -25t-3 -15t1 -14.5
t9.5 -10.5t21.5 -4h37h67h81h80h64h36q23 0 34 12t2 38q-5 13 -9.5 30.5t-9.5 34.5q-5 19 -11 39h-368zM336 498v228q0 11 2.5 23t10 21.5t20.5 15.5t34 6h188q31 0 51.5 -14.5t20.5 -52.5v-227h-327z" />
    <glyph glyph-name="bianji" unicode="&#xe606;" horiz-adv-x="1000" 
d="M851 612l-50 50q-29 29 -69.5 29t-68.5 -29l-37 -36l189 -189l36 36q29 29 29 69.5t-29 69.5zM325 136v51l-69 68l-5 -5q-23 -23 -28 -56l-14 -49l-10 -6l-35 -165l187 32l9 18l60 19l1 4q11 6 19 15l5 5l-69 69h-51zM284 283l41 -41v0h32v-73h74v-33v0l41 -42l322 321
l-189 189z" />
    <glyph glyph-name="bianji1" unicode="&#xe607;" horiz-adv-x="1000" 
d="M939.5 662q-11.5 12 -28.5 12t-28 -12l-396 -396q-12 -12 -12 -28.5t11.5 -28t28.5 -11.5t28 11l396 396q12 12 12 28.5t-11.5 28.5zM792.5 237q-16.5 0 -28 -11.5t-11.5 -27.5v-199q0 -16 -11.5 -27.5t-28.5 -11.5h-515q-16 0 -28 11.5t-12 27.5v635q0 16 12 27.5
t28 11.5h396q17 0 28.5 11.5t11.5 28t-11.5 28t-28.5 11.5h-436q-32 0 -55.5 -23t-23.5 -56v-713q0 -33 23.5 -56.5t55.5 -23.5h595q33 0 56 23.5t23 56.5v238q0 16 -11.5 27.5t-28 11.5z" />
    <glyph glyph-name="check" unicode="&#xe66e;" 
d="M382 -243l-382 489l182 234l200 -256l460 588l182 -233z" />
    <glyph glyph-name="tongguo" unicode="&#xe608;" 
d="M674 598v0h98v15v119q0 13 -9.5 23t-23.5 10h-128h-2v0v-99q0 -28 19 -48t46 -20zM496 67v13q0 6 1 13h-214q-23 0 -39 16t-16 39.5t16 40t39 16.5h252q33 53 87.5 84t119.5 31h14q8 0 16 -1v222h-127q-24 0 -41.5 11t-28 28t-16 36.5t-5.5 36.5v112h-245h-87h-70
q-13 0 -22.5 -10t-9.5 -23v-82v-32v-548v0v-113q0 -14 9.5 -24t22.5 -10h77h3h308q-21 31 -32.5 67t-11.5 77zM244 413q16 16 39 16h325q23 0 39 -16t16 -39.5t-16 -40t-39 -16.5h-325q-23 0 -39 16.5t-16 40t16 39.5zM921 142q-15 36 -41.5 63t-61 42.5t-74.5 15.5
q-39 0 -74 -16q-34 -15 -60 -42t-41.5 -63t-15.5 -76q0 -42 15.5 -77.5t41.5 -62.5t60 -43q35 -15 74 -15q40 0 74.5 15.5t61 42.5t41.5 62.5t15 77.5q0 40 -15 76zM878 145l-177 -193q-2 -2 -4.5 -2.5t-5.5 1.5l-79 76q-2 2 -2 4.5t2 4.5l25 25q1 2 4 2t5 -2l45 -44
q2 -2 5 -2t5 2l142 162q2 2 4.5 2t5.5 -2l24 -24q2 -2 2 -5t-1 -5z" />
    <glyph glyph-name="check1" unicode="&#xe68f;" 
d="M320 364l149 -149l235 298l64 -64l-299 -362l-213 213z" />
    <glyph glyph-name="qian" unicode="&#xe656;" 
d="M437 41h-193q-27 2 -41.5 22.5t-17.5 45.5q3 25 17.5 41t41.5 18h193v63l-193 1q-27 2 -41.5 19t-17.5 43q3 25 17.5 41t41.5 18h144l-134 236q-10 12 -19 30.5t-8 40.5q5 28 20 45.5t56 22.5q24 -2 43 -16.5t31 -31.5l152 -278l167 280q12 17 31 30t43 16q15 -1 27.5 -4
t22 -10t16 -20t9.5 -34q0 -29 -20 -55l-155 -252h147q26 -2 41 -18t17 -41q-2 -26 -17.5 -44t-41.5 -20l-191 -1v-61h192q26 -2 41 -20t17 -43q-2 -26 -17 -43.5t-41 -19.5l-192 1v-106q-4 -85 -93 -85q-44 0 -68.5 21t-26.5 64v104z" />
    <glyph glyph-name="shouye" unicode="&#xe602;" 
d="M1025 206l-192 201v300h-128v-167l-192 200l-513 -534v-33h128v-334h320v200h129v-200h320v334h128v33z" />
    <glyph glyph-name="email" unicode="&#xe667;" 
d="M662 348l297 251v-605zM69 631h888l-444 -373zM513 221l130 110l283 -337h-826l283 334zM362 348l-296 251v-605z" />
    <glyph glyph-name="fenxiang" unicode="&#xe63e;" 
d="M620 78l-168 167q15 27 15 58t-15 58l168 167q34 -19 74.5 -13t69.5 34q35 36 35 86.5t-35.5 86.5t-86 36t-86.5 -36q-29 -29 -34.5 -69.5t13.5 -74.5l-167 -168q-34 19 -74.5 13.5t-69.5 -34.5q-36 -35 -36 -85.5t36 -86.5q29 -29 69.5 -34.5t74.5 13.5l167 -167
q-19 -35 -13.5 -75.5t34.5 -69.5q36 -35 86.5 -35t86 35.5t35.5 86t-35 86.5q-29 29 -69.5 34.5t-74.5 -13.5z" />
    <glyph glyph-name="share6" unicode="&#xe637;" 
d="M512 812q-139 0 -257 -68.5t-186.5 -186.5t-68.5 -257t68.5 -257t186.5 -186.5t257 -68.5t257 68.5t186.5 186.5t68.5 257t-68.5 257t-186.5 186.5t-257 68.5zM618 184q26 19 57 19q39 0 67 -27.5t28 -67t-28 -67t-67 -27.5t-66.5 27.5t-27.5 67.5v0l-242 116
q-23 -15 -51 -15q-39 0 -66.5 27.5t-27.5 67t27.5 67t66.5 27.5q33 0 59 -20l234 112v0q0 40 27.5 67.5t66.5 27.5t67 -27.5t28 -67t-28 -67t-67 -27.5q-31 0 -57 19l-235 -114v-4z" />
    <glyph glyph-name="tongguo1" unicode="&#xe609;" 
d="M304 235q1 -1 9.5 -10.5t15.5 -16.5t17.5 -13t18.5 -6q15 0 75 59.5t119 124.5l243 282q13 14 27 14q24 1 38 -12l79 -78q14 -13 14.5 -32t-12.5 -32l-444 -469l1 -1l-94 -100q-13 -14 -32 -14.5t-33 12.5l-268 252q-14 13 -14.5 32t12.5 32l63 67q13 14 32 14.5
t33 -12.5z" />
    <glyph glyph-name="tongguo2" unicode="&#xe60a;" 
d="M658 582v0h98v14v119q0 14 -9.5 23.5t-23.5 9.5h-128h-2v0v-99q0 -28 19 -47.5t46 -19.5zM480 51v13q0 6 1 13h-214q-22 0 -38 16t-16 39t16 40t38 17h252q33 52 87 83.5t119 31.5h15q7 -1 16 -2v222h-127q-24 0 -41.5 11.5t-28 28t-16 36t-5.5 36.5v112h-245h-86h-70
q-13 0 -22.5 -9.5t-9.5 -23.5v-82v-31v-548v0v-113q0 -14 9.5 -24t22.5 -10h77h2h308q-21 31 -32.5 67t-11.5 77zM229 396q16 16 38 16h325q23 0 39 -16t16 -39t-16 -40t-39 -17h-325q-22 0 -38 17t-16 40t16 39zM904 126q-15 36 -41 62.5t-60.5 42.5t-74.5 16
q-39 0 -74 -16q-34 -16 -60 -42.5t-41 -62.5t-15 -76q0 -41 15 -77t41 -63t60 -43q35 -15 74 -15q40 0 74.5 15.5t60.5 42.5t41 63t15 77q0 40 -15 76zM861 129l-176 -193q-2 -2 -5 -2t-5 2l-79 75q-2 2 -2 4.5t2 4.5l25 25q1 2 4 2t5 -2l45 -44q2 -2 5 -2t5 2l141 162
q2 2 5 2t5 -2l25 -24q2 -2 2 -5t-2 -5z" />
    <glyph glyph-name="tui" unicode="&#xe60b;" 
d="M364 143q0 -3 2 -6q2 -4 21 -16q11 -7 22 -12t24 -9t28 -7q14 -3 30.5 -4t42.5 -2t62 -1t69 1q34 1 62 3q31 1 46 2h16q13 2 21.5 -5.5t12 -17.5t2.5 -21.5t-7 -19.5q-6 -9 -17 -13q-10 -3 -57 -3q-48 -2 -89 -2q-79 0 -133 2q-54 3 -83 10q-59 12 -93 46q-8 7 -16 7
q-7 0 -14 -5q-6 -6 -26 -31q-18 -26 -26 -31q-7 -5 -20 -5q-7 0 -14.5 3t-13.5 8t-10 12.5t-4 15.5q0 10 5 18q5 10 26 33q11 11 24 23t26 23q3 4 3 8v172q0 9 -2 12t-8 3h-35q-18 0 -29 10.5t-11 26t11 26t29 10.5h71q29 0 40.5 -17t11.5 -55v-192zM379 515q0 -16 -12 -29
q-12 -14 -26 -14t-24 8q-25 19 -87 55q-18 11 -18 25q0 6 2.5 14t7.5 15q5 6 12 10.5t17 4.5q20 0 55 -22q18 -11 32 -20t23 -15q9 -8 13.5 -15.5t4.5 -16.5zM768 332q6 0 13 -3.5t12.5 -9t9 -12.5t3.5 -13q0 -14 -16.5 -29t-53.5 -39q-5 -3 -5 -5.5t4 -4.5q29 -17 44 -26
q17 -11 25 -17q18 -12 18 -26t-12 -28q-13 -14 -27 -14t-35 13q-92 59 -212 122q-22 13 -22 26q0 14 12 28q13 15 27 15q8 0 17 -4l78 -41q7 -4 10 -4q6 0 38 24q33 25 33 27t-10 2h-227q-10 0 -10 -10v-108q0 -10 6.5 -10t32.5 7q14 4 22 7t14 4q1 1 4.5 2t4.5 1q4 1 8 1
q17 0 26 -14q16 -27 1 -43q-8 -8 -38 -21q-34 -15 -65 -19l-28 -4q-10 -1 -18 -1q-26 0 -36.5 14.5t-10.5 47.5v363q0 39 15 52t68 13h229q34 0 49 -15t15 -50v-150q0 -30 -13 -48zM705 498v12q0 8 -2 11.5t-11 3.5h-201q-5 0 -7 -3t-2 -12v-12q0 -10 9 -10h204q10 0 10 10z
M705 400v14q0 9 -10 9h-204q-9 0 -9 -9v-20q0 -10 9 -10h201q13 0 13 16zM1024 300q0 -139 -68.5 -257t-186.5 -186.5t-257 -68.5t-257 68.5t-186.5 186.5t-68.5 257t68.5 257t186.5 186.5t257 68.5t257 -68.5t186.5 -186.5t68.5 -257zM512 719q-114 0 -210.5 -56
t-152.5 -152.5t-56 -210.5t56 -210.5t152.5 -152.5t210.5 -56t210.5 56t152.5 152.5t56 210.5t-56 210.5t-152.5 152.5t-210.5 56z" />
    <glyph glyph-name="bold" unicode="&#xe636;" 
d="M807 176q-13 35 -37 60t-57 41.5t-75 22.5v2q39 14 66 34t44.5 46t25 56t7.5 63q0 41 -13 76.5t-36.5 63t-58 47.5t-76.5 31q-15 4 -33 7t-39 5t-46 3t-55 1h-222v-901h230q68 0 116 5.5t88 18.5q52 18 87 45.5t56.5 60t31 67t9.5 66.5q0 44 -13 79zM251 680l183 -1
q69 0 80 -1q56 -5 71 -9q51 -16 85 -46q20 -18 37.5 -52.5t17.5 -58.5q-2 -72 -35 -107q-36 -38 -103 -60q-10 -4 -54 -9q-32 -4 -55 -4h-227v348zM758 58q-8 -27 -19 -44q-29 -42 -43 -52q-50 -37 -69 -43q-51 -17 -78 -20q-42 -5 -94 -5h-204v372h247q41 0 68 -2
q28 -2 49 -7q45 -10 64 -21q39 -23 49 -37q15 -20 24 -41q10 -23 10 -52q0 -32 -4 -48z" />
    <glyph glyph-name="shanchu" unicode="&#xe60c;" 
d="M694 580q17 -2 50.5 -1.5t45.5 -1.5q34 -6 50.5 -33t12.5 -69h-54q-1 -54 -1 -298q0 -16 1 -48.5t0.5 -56.5t-2.5 -44q-3 -31 -23.5 -50.5t-50.5 -25.5q-17 -2 -38.5 -2.5t-50.5 0.5t-41 1q-29 0 -82.5 -0.5t-97 -0.5t-81.5 1q-63 1 -92 39q-3 4 -5 8.5t-4 10.5t-3 10
t-2 12l-1.5 12t-0.5 13.5v13v15v14.5v376h-52q-6 38 8.5 65t43.5 36q12 4 30.5 4.5t35.5 -0.5t38 0q-3 49 6 74.5t42 29.5q9 1 21.5 1t29 -0.5t25.5 -0.5h152h16.5h18.5t14 -1t14.5 -3t10.5 -6q6 -5 9.5 -12.5t4.5 -18.5t1.5 -19.5t0 -22.5t0.5 -21zM380 629v-50h262v52
h-261q-1 0 -1 -2zM329 469v-318q0 -6 -0.5 -19.5t-0.5 -24t0.5 -22.5t3 -20t7.5 -11q5 -4 15 -4t16 4q5 3 7.5 11t3.5 20t1 22t-0.5 23.5t-0.5 19.5v322h-51q-1 -1 -1 -3zM485 469v-308q0 -3 -1.5 -30t-0.5 -44.5t6 -24.5q5 -8 18 -11t21 3q4 4 6.5 12.5t3 20.5t0.5 23
t-1 24t-1 18v320h-51q-1 -1 0 -3zM642 469v-323q0 -5 -0.5 -20.5t-0.5 -24t1 -20t5 -18.5t10 -9q7 -3 16.5 -2t13.5 4q5 4 7 17.5t2 26t-1 31t-1 23.5v318h-51q-1 -1 -1 -3z" />
    <glyph glyph-name="zhuce1" unicode="&#xe660;" 
d="M793 -173q-48 0 -90.5 18t-74 50t-50 74.5t-18.5 90t18.5 90t50 73.5t74 49.5t90 18.5t90 -18.5t74 -49.5t49.5 -73.5t18 -90t-18 -90t-49.5 -74.5t-74 -50t-89.5 -18v0zM907 97h-84v78q0 16 -10 27.5t-26 11.5t-25 -11.5t-9 -27.5v-78h-74q-15 0 -26.5 -11.5
t-11.5 -27.5t11.5 -23.5t26.5 -7.5h74v-81q0 -16 9 -27t25 -11t26 11t10 27v81h84v-3q16 0 27.5 9t11.5 25t-11.5 27.5t-27.5 11.5v0zM627 379q-4 -18 -9 -33q-4 -12 -11 -25t-15 -20q-10 -8 -14 -17t-7 -18.5t-6 -20t-11 -20.5q-26 -34 -39 -66t-18.5 -61t-3 -58t9.5 -56
q4 -21 13 -43t26.5 -45t45 -45.5t68.5 -42.5q-28 -6 -64 -10q-30 -4 -75 -7q-45 -2 -103 -2q-29 0 -68 2t-80.5 5.5t-82 8t-73.5 9.5t-56.5 11t-29.5 10q-10 9 -15.5 50.5t3.5 108.5q6 37 30 57t57 31t68.5 21t63.5 27q21 13 32.5 25t16 24.5t4.5 26t-1 29.5
q-2 24 -16.5 37.5t-30.5 27.5q-9 7 -15.5 20.5t-11.5 25.5q-6 15 -9 33q-8 2 -15 7q-5 4 -12 13.5t-13 27.5q-5 17 -3.5 31.5t6.5 24.5q4 13 12 22q0 38 5 77q4 33 13.5 70.5t31.5 66.5q20 28 43.5 46.5t48.5 28.5t50 14t47 4q30 0 57 -7t50.5 -18t41.5 -25.5t29 -28.5
q26 -33 38 -73t18 -75q5 -40 4 -81q7 -6 12 -14q4 -7 6.5 -18t-0.5 -28q-2 -22 -8.5 -34.5t-14.5 -19.5q-9 -8 -20 -11v0z" />
    <glyph glyph-name="fangbianfenxiang" unicode="&#xe6b0;" 
d="M633 180q-26 0 -50 -11l-88 88q10 22 10 46.5t-10 47.5l88 87q24 -12 50 -12q48 0 81.5 33.5t33.5 81t-33.5 81t-81 33.5t-81 -33.5t-33.5 -80.5q0 -23 8 -43l-89 -90q-23 10 -47 10q-48 0 -81.5 -33.5t-33.5 -81t33.5 -81t81.5 -33.5q24 0 47 10l89 -90q-8 -21 -8 -43
q0 -48 33.5 -81.5t81 -33.5t81 33.5t33.5 81t-33.5 81t-81.5 33.5zM914 -26q0 -31 -22.5 -53.5t-53.5 -22.5h-652q-31 0 -53.5 22.5t-22.5 53.5v313h-78v-313q0 -64 45 -109t109 -45h652q64 0 109 45t45 109v313h-78v-313zM838 780h-652q-64 0 -109 -45t-45 -109v-313h78
v313q0 31 22.5 53.5t53.5 22.5h652q31 0 53.5 -22.5t22.5 -53.5v-313h78v313q0 64 -45 109t-109 45z" />
    <glyph glyph-name="shenhetongguo" unicode="&#xe60d;" 
d="M361 -71l-33 33l656 657l33 -33l-651 -652zM356 -66l-349 350l33 32l349 -349l-33 -33v0z" />
    <glyph glyph-name="bianji2" unicode="&#xe60e;" 
d="M126 -86l198 62l458 458l-136 136l-458 -458zM748 672l-56 -57l135 -135l57 56q14 14 14 34t-14 34l-68 68q-14 14 -34 14t-34 -14z" />
    <glyph glyph-name="chakan" unicode="&#xe60f;" 
d="M1023 -105l-106 -106l-266 266q-106 -74 -235 -74q-113 0 -208.5 55.5t-151 151.5t-55.5 208.5t55.5 208t151 151.5t208 56t208.5 -56t151.5 -151.5t55.5 -208.5q0 -128 -74 -235zM416 684q-119 0 -203.5 -84.5t-84.5 -203.5t84.5 -203t203.5 -84t203 84t84 203
t-84 203.5t-203 84.5z" />
    <glyph glyph-name="icon45" unicode="&#xe675;" 
d="M869 613h-714q-37 0 -63.5 -26.5t-26.5 -63.5v-446q0 -37 26.5 -63.5t63.5 -26.5h714q37 0 63.5 26.5t26.5 63.5v446q0 37 -26.5 63.5t-63.5 26.5zM467 479h90v-90h-90v90zM467 345h90v-90h-90v90zM333 479h90v-90h-90v90zM333 345h90v-90h-90v90zM289 255h-90v90h90v-90
zM289 389h-90v90h90v-90zM825 77h-625v89h625v-89zM691 255h-90v90h90v-90zM691 389h-90v90h90v-90zM825 255h-90v90h90v-90zM825 389h-90v90h90v-90z" />
    <glyph glyph-name="llexpressionsegmentkeyboard" unicode="&#xe676;" 
d="M880 -26h-742q-32 0 -55 22.5t-23 54.5v461q0 32 23 54.5t55 22.5h742q32 0 55 -22.5t23 -54.5v-461q0 -32 -23 -54.5t-55 -22.5zM278 111q0 -15 12 -25t29 -10h381q17 0 28.5 10t11.5 25v34q0 14 -11.5 24t-28.5 10h-381q-17 0 -29 -10t-12 -24v-34zM266 461
q0 16 -11.5 27.5t-27.5 11.5h-38q-16 0 -27.5 -11.5t-11.5 -27.5v-38q0 -16 11.5 -27.5t27.5 -11.5h38q16 0 27.5 11.5t11.5 27.5v38zM253 346q-16 0 -27.5 -11.5t-11.5 -27.5v-38q0 -16 11.5 -27.5t27.5 -11.5h38q16 0 27.5 11.5t11.5 27.5v38q0 16 -11.5 27.5t-27.5 11.5
h-38zM420 461q0 16 -11.5 27.5t-27.5 11.5h-38q-16 0 -27.5 -11.5t-11.5 -27.5v-38q0 -16 11.5 -27.5t27.5 -11.5h38q16 0 27.5 11.5t11.5 27.5v38zM407 346q-16 0 -27.5 -11.5t-11.5 -27.5v-38q0 -16 11.5 -27.5t27.5 -11.5h38q16 0 27.5 11.5t11.5 27.5v38
q0 16 -11.5 27.5t-27.5 11.5h-38zM573 461q0 16 -11 27.5t-27 11.5h-39q-15 0 -26.5 -11.5t-11.5 -27.5v-38q0 -16 11.5 -27.5t26.5 -11.5h39q16 0 27 11.5t11 27.5v38zM561 346q-16 0 -27.5 -11.5t-11.5 -27.5v-38q0 -16 11.5 -27.5t27.5 -11.5h38q16 0 27.5 11.5
t11.5 27.5v38q0 16 -11.5 27.5t-27.5 11.5h-38zM727 461q0 16 -11 27.5t-27 11.5h-39q-16 0 -27 -11.5t-11 -27.5v-38q0 -16 11 -27.5t27 -11.5h39q16 0 27 11.5t11 27.5v38zM714 346q-15 0 -26.5 -11.5t-11.5 -27.5v-38q0 -16 11.5 -27.5t26.5 -11.5h39q16 0 27 11.5
t11 27.5v38q0 16 -11 27.5t-27 11.5h-39zM881 461q0 16 -11 27.5t-27 11.5h-39q-16 0 -27 -11.5t-11 -27.5v-38q0 -16 11 -27.5t27 -11.5h39q16 0 27 11.5t11 27.5v38z" />
    <glyph glyph-name="denglu" unicode="&#xe65a;" 
d="M684 440q19 0 32.5 13.5t13.5 33t-13.5 33t-32.5 13.5h-136v93h136q19 0 32.5 13.5t13.5 33t-13.5 33t-32.5 13.5h-136v47q0 19 -13.5 32.5t-32 13.5t-32 -13.5t-13.5 -32.5v-516q-78 -17 -130 -81t-52 -147q0 -96 66.5 -164.5t161 -68.5t161 68.5t66.5 164.5
q0 83 -51.5 147t-130.5 81v190h136zM639 22q0 -58 -40 -99t-96.5 -41t-96.5 41t-40 99t40 98.5t96.5 40.5t96.5 -40.5t40 -98.5z" />
    <glyph glyph-name="check2" unicode="&#xe671;" 
d="M512 812q-104 0 -199 -40.5t-163.5 -109t-109 -163.5t-40.5 -199t40.5 -199t109 -163.5t163.5 -109t199 -40.5t199 40.5t163.5 109t109 163.5t40.5 199t-40.5 199t-109 163.5t-163.5 109t-199 40.5zM440 40l-296 296l79 79l217 -216l361 361l79 -79z" />
    <glyph glyph-name="xiahuaxian" unicode="&#xe631;" 
d="M253 -55h542v-90h-542v90zM789 749v-404q0 -72 -12 -129t-43 -96.5t-84.5 -60t-134.5 -20.5q-65 0 -110 13t-76 35t-48.5 52.5t-26.5 64.5t-11 70t-2 71v404h92v-402q0 -70 12 -114t35 -68.5t57 -33.5t78 -9t78 9t57 33.5t34.5 68.5t11.5 114v402h93z" />
    <glyph glyph-name="denglushouquan" unicode="&#xe6ed;" 
d="M915 146h-26l0.5 1.5l0.5 1.5v56q0 54 -38 91.5t-91.5 37.5t-91.5 -37.5t-38 -91.5v-56v-2v-1h-15q-18 0 -30.5 -12.5t-12.5 -30.5v-205q0 -18 12.5 -31t30.5 -13h299q18 0 30.5 13t12.5 31v205q0 18 -12.5 30.5t-30.5 12.5zM697 149v56q0 26 18.5 44.5t44.5 18.5
t45 -18.5t19 -44.5v-56v-2v-1h-127v1.5v1.5zM925 -102q0 -11 -10 -11h-299q-10 0 -10 11v205q0 4 3 7t7 3h299q4 0 7 -3t3 -7v-205zM765.5 11q-10.5 0 -17.5 -7t-7 -17v-48h49v48q0 10 -7 17t-17.5 7zM627 200q-24 9 -47 15q-4 2 -8 2h-9q-4 0 -7 -2q-7 -4 -19 -9
q-4 -1 -16 -5q-1 0 -3.5 -0.5t-3.5 -1.5q-5 -1 -14 -3q-5 -1 -13 -2q-9 -1 -11 -2q-14 -1 -26 -1h-5.5h-4.5q-57 2 -96 24q-4 2 -8 2h-6q-2 0 -4 -1q-146 -34 -257 -142q-5 -5 -5 -12v-58q0 -19 5 -84t11 -65h360h97h24q-29 61 -29 129q0 63 25 119t70 97zM267 473
q0 -13 9 -22t21 -9h1q5 -65 49 -116t103 -51q6 0 13 1q1 0 5 1q5 0 8 1q2 1 6 2q2 0 7 2q4 2 6 2q1 1 4 2q42 19 70.5 62.5t32.5 93.5v0q13 0 21.5 9t8.5 22q0 21 -18 29q10 29 10 60q0 63 -36 112t-91 65q-2 1 -4 1q-8 2 -17 4l-2 0.5t-3 0.5q-12 1 -21 1q-72 0 -123 -54
t-51 -130q0 -31 9 -60q-18 -8 -18 -29z" />
    <glyph glyph-name="shanchu1" unicode="&#xe610;" 
d="M874 665q35 0 58 -11.5t36.5 -29t18.5 -38t5 -38.5q0 -8 -0.5 -12.5t-0.5 -8.5v-7h-78v-612q0 -24 -9 -45.5t-27 -37.5t-43 -26t-58 -10h-523q-31 0 -58 9t-46.5 26t-30.5 41t-11 54v601h-73q-1 1 -1 6q-1 6 -1 36q0 15 7 34t21 34.5t36.5 26t52.5 10.5h105v71
q0 31 21 52.5t52 21.5h367q41 0 57 -21.5t16 -52.5v-72q24 -1 53 -1h54v0zM327 665h367v73h-367v-73zM290 -74q38 0 38 48v542h-73v-542q0 -24 7.5 -36t27.5 -12v0zM512 -72q20 0 27 11t7 35v542h-73v-542q0 -46 39 -46v0zM733 -70q21 0 28 11t7 36v539h-74v-539
q0 -47 39 -47v0z" />
    <glyph glyph-name="bianji3" unicode="&#xe611;" 
d="M250 30l202 86l-124 122zM848 505l-127 131l-370 -365l133 -137zM953 662q-34 37 -73 66q-17 12 -34 12t-26 -6l-8 -6l-66 -66l134 -133q56 57 73 76q8 9 8 23t-4 24zM811 -38q0 -7 -5 -12t-12 -5h-622q-7 0 -12 5t-5 12v617q0 7 5 12t12 5h396l82 87h-563q-8 0 -14 -6
t-6 -14v-786q0 -8 6 -14t14 -6h792q8 0 14 6t6 14v562l-88 -82v-395z" />
    <glyph glyph-name="delete" unicode="&#xe612;" 
d="M480 516h64v-549h-64v549zM329 516h64v-549h-64v549zM631 516h64v-549h-64v549zM896 641h-172v41q0 23 -18.5 39t-45.5 16h-296q-27 0 -45.5 -16t-18.5 -39v-41h-177v-64h67v-675q0 -25 19 -43.5t45 -18.5h516q26 0 45 18.5t19 43.5v675h62v64v0zM364 673h296v-32h-296
v32zM771 -96h-1l-516 -2v675h516z" />
    <glyph glyph-name="email1" unicode="&#xe668;" 
d="M511 812q-104 0 -198.5 -40.5t-163 -109t-109 -163t-40.5 -198.5q0 -105 40.5 -200t109 -163.5t163 -109t198.5 -40.5t199 40.5t163.5 109t109.5 164t41 199.5t-40.5 198.5t-109 163t-163.5 109t-200 40.5zM805 109h-586v345l292 -216l293 216v-345h1zM511 272l-292 217
h585z" />
    <glyph glyph-name="denglumima" unicode="&#xe662;" 
d="M566.5 457.5q-14.5 -14.5 -8.5 -41t29.5 -49.5t50 -29.5t41 8t8.5 41.5t-29.5 50t-50 29t-41 -8.5zM512 750q-91 0 -174 -35.5t-143 -95.5t-95.5 -143t-35.5 -174t35.5 -174t95.5 -143t143 -95.5t174 -35.5t174 35.5t143 95.5t95.5 143t35.5 174t-35.5 174t-95.5 143
t-143 95.5t-174 35.5zM735 262q-33 -32 -85 -29t-102 39l-199 -199q-11 -12 -27.5 -12t-28 12t-11.5 28t12 28l15 15l-43 43q-6 6 -6 14t5.5 14t14 6t14.5 -6l43 -43l13 14l-14 15q-6 5 -6 13.5t5.5 14t14 5.5t14.5 -5l14 -15l14 14l-43 43q-5 5 -5 13.5t5.5 14t14 5.5
t13.5 -6l43 -42l72 72q-35 49 -38 101t29 85q37 37 100.5 27t116 -62.5t62.5 -115.5t-27 -101z" />
    <glyph glyph-name="shenhetongguo1" unicode="&#xe613;" 
d="M689 547v0h98v13v108q0 12 -9 21t-23 9h-129h-2v0v-91q0 -26 19 -43t46 -17v0zM511 61v13q0 7 1 11h-215q-21 0 -39 14q-16 15 -16 36q0 22 16 37q15 15 39 15h253q36 51 87 77q53 29 120 29h14q3 0 8 -0.5t7 -0.5v203h-126q-24 0 -42 10q-19 12 -28 25.5t-17 32.5
q-5 21 -5 34v102h-245h-87h-70q-13 0 -24 -9q-9 -9 -9 -21v-75v-29v-501v0v-103q0 -12 9.5 -21.5t23.5 -9.5h77h2h309q-21 27 -32 62q-11 29 -11 69v0zM258 377q14 14 39 14h327q21 0 39 -14q16 -17 16 -36q0 -22 -16 -37q-17 -15 -39 -15h-327q-22 0 -39 15q-16 15 -16 37
t16 36v0zM937 130q-16 34 -41 57q-27 25 -60 39q-37 15 -75 15q-39 0 -74 -15q-33 -13 -60 -39q-25 -23 -41 -57q-16 -32 -16 -70q0 -36 16 -70t41 -58q26 -25 60 -39q37 -14 74 -14q38 0 75 14q32 13 60 39q25 24 41 58q15 32 15 70t-15 70v0zM894 133l-177 -177
q-2 -2 -5 -2t-5 2l-80 69q-2 2 -2 4t2 4l24 22q2 2 5 2q1 0 6 -2l45 -40q2 -2 5 -2t5 2l142 148q2 2 5 2t5 -2l25 -23q2 -2 2 -4q-1 0 -1.5 -1t-0.5 -2v0zM894 133zM336 155z" />
    <glyph glyph-name="check3" unicode="&#xe6de;" 
d="M376 133l-180 180l-59 -60l239 -239l512 512l-60 60z" />
    <glyph glyph-name="shanchu2" unicode="&#xe614;" 
d="M512 748q-122 0 -225 -60t-163 -163t-60 -225t60 -225t163 -163t225 -60t225 60t163 163t60 225t-60 225t-163 163t-225 60v0zM736 151l-75 -75l-149 149l-149 -149l-75 75l149 149l-149 149l75 75l149 -149l149 149l75 -75l-149 -149l149 -149v0zM736 151z" />
    <glyph glyph-name="check4" unicode="&#xe7bd;" 
d="M940 593.5q-20 20.5 -49 20.5t-49 -21l-440 -440l-220 220q-20 21 -49 21t-49 -20.5t-20 -49t20 -48.5l269 -269l2 -2q21 -19 48.5 -18.5t47.5 20.5l489 489q20 20 20 48.5t-20 49z" />
    <glyph glyph-name="bold1" unicode="&#xe62f;" 
d="M147 798h454q114 0 175 -73t61 -181q0 -90 -44 -155q-29 -43 -84 -68q84 -26 124 -90.5t40 -162.5q0 -79 -28.5 -142.5t-77.5 -99.5q-30 -23 -92 -34q-82 -14 -109 -14h-419v1020zM392 398h106q56 0 78.5 25.5t22.5 73.5q0 44 -22.5 69.5t-77.5 25.5h-107v-194zM392 -2
h124q62 0 88 29t26 77q0 46 -25.5 73t-89.5 27h-123v-206z" />
    <glyph glyph-name="zan" unicode="&#xe63d;" 
d="M288 684q-91 0 -157.5 -75.5t-67.5 -204.5q0 -44 32.5 -98.5t81.5 -105t106.5 -102.5t107.5 -91.5t85.5 -70.5t38.5 -41q2 10 37 41.5t85 71t108 92t107 103t81.5 105.5t31.5 97q-1 129 -67 202t-158 73q-68 0 -129.5 -43.5t-96.5 -125.5q-36 85 -97 129t-129 44v0z" />
    <glyph glyph-name="iconfontcolor68" unicode="&#xe6c1;" 
d="M668 636q10 -9 10 -22.5t-10 -22.5l-283 -283q-9 -9 -22 -9t-23 9v0q-9 9 -9 22.5t9 22.5l283 283q9 10 22.5 10t22.5 -10v0zM718 683zM590 683q0 53 37.5 90.5t90 37.5t90.5 -37.5t38 -90.5t-38 -90.5t-90.5 -37.5t-90 37.5t-37.5 90.5zM306 279zM178 279q0 53 38 90.5
t90.5 37.5t90 -37.5t37.5 -90.5t-37.5 -90.5t-90 -37.5t-90.5 37.5t-38 90.5zM649 -69q-9 -9 -22.5 -9t-22.5 10l-279 287q-9 9 -9 22.5t10 22.5v0q9 9 22.5 9t22.5 -9l279 -287q9 -10 9 -23t-10 -23v0zM679 -83zM551 -83q0 53 37.5 90.5t90.5 37.5t90.5 -37.5t37.5 -90.5
t-37.5 -90.5t-90.5 -37.5t-90.5 37.5t-37.5 90.5z" />
    <glyph glyph-name="iconfontcolor11" unicode="&#xe78d;" 
d="M939.5 727.5q-84.5 84.5 -204 84.5t-203.5 -85q-62 -62 -79 -148t15 -163q-3 -2 -5 -4l-440 -440q-9 -9 -16 -25t-7 -30v-97q0 -13 9.5 -22.5t22.5 -9.5l98 1q13 0 22.5 9t9.5 23v93q0 13 9 22.5t23 9.5h93q13 0 22.5 9.5t9.5 22.5v94q0 13 9.5 22.5t22.5 9.5h94
q13 0 29 6.5t26 16.5l124 124q2 2 4 5q77 -32 163 -15t148 79q85 84 85 203.5t-84.5 204zM905.5 535q-32.5 -33 -79 -33t-79.5 33t-33 79.5t33 79t79.5 32.5t79 -32.5t32.5 -79t-32.5 -79.5z" />
    <glyph glyph-name="bianji4" unicode="&#xe615;" 
d="M769 432l-126 126l63 63q16 16 38 16t38 -16l50 -50q16 -16 16 -38t-16 -38zM403 67l-126 125l343 340l126 -126zM176 -37l77 205l125 -125z" />
    <glyph glyph-name="shanchu3" unicode="&#xe616;" 
d="M510 812q-139 0 -256 -68t-185.5 -185.5t-68.5 -256.5t68.5 -256.5t185.5 -185.5t256 -68q211 0 360.5 149.5t149.5 360.5q0 139 -68 256t-185.5 185.5t-256.5 68.5zM719 160q14 -13 14 -33t-14 -34t-34 -14t-33 14l-142 141l-141 -141q-14 -14 -34 -14t-34 14t-14 33.5
t14 33.5l141 142l-141 141q-14 14 -14 34t14 34t34 14t34 -14l141 -141l142 141q14 14 33.5 14t33.5 -14t14 -34t-14 -34l-141 -141z" />
    <glyph glyph-name="share" unicode="&#xe6f1;" 
d="M768 126q-48 0 -84 -33l-304 177q4 16 4 30t-4 30l301 175q37 -34 87 -34q53 0 90.5 37.5t37.5 90.5t-37.5 90.5t-90.5 37.5t-90.5 -37.5t-37.5 -90.5q0 -14 4 -30l-301 -176q-37 35 -87 35q-53 0 -90.5 -37.5t-37.5 -90.5t37.5 -90.5t90.5 -37.5q50 0 87 35l304 -178
q-3 -14 -3 -28q0 -51 36 -87.5t88 -36.5t88 36.5t36 88t-36 88t-88 36.5z" />
    <glyph glyph-name="share1" unicode="&#xe63c;" 
d="M623 -19l-1 -13q0 -51 35.5 -86.5t86 -35.5t86 35.5t35.5 86t-35.5 86t-86.5 35.5q-31 0 -58 -15t-44 -41l-258 202q14 27 14 55q0 16 -6 35l263 205q37 -40 89 -40q51 0 86.5 36t35.5 86t-35.5 86t-86 36t-86 -36t-35.5 -86q0 -16 5 -35l-263 -205q-36 39 -89 39
q-50 0 -85.5 -35.5t-35.5 -86t35.5 -86t85.5 -35.5q40 0 74 25l274 -212v0z" />
    <glyph glyph-name="pinglun" unicode="&#xe648;" 
d="M979 145l-1 -6l-1 -3l-1 -2v-1l-1 -1l-1 -2l-1 -2l-1 -3l-1 -2l-1 -2l-1 -1l-1 -1l-1 -1l-1 -1l-1 -1l-1 -2l-1 -1l-1 -3l-1 -1l-2 -1v-2h-2l-1 -1l-1 -2l-2 -1l-2 -1l-2 -1l-1 -1v-1l-1 -2l-1 -1l-3 -1l-3 -1l-3 -1h-2l-1 -1l-1 -2l-2 -1l-3 -1l-8 -1l-338 -1l-3 -1
l-1 -1l-1 -1l-1 -1l-1 -1l-1 -1l-1 -1v-1h-2v-1q-1 -5 -6.5 -8t-5.5 -7q-6 -2 -10 -7q-1 0 -4 -2t-3 -7l-5 -1l-4 -2l-1 -5l-9 -4q0 -3 -1 -3.5t-2.5 -1t-2.5 -1.5t-1 -3t-1 -2.5t-5 -0.5v-3h-2v-6l-3 -1h-4l-4 -6q-5 0 -10 -7q-1 -1 -4.5 -4t-4.5 -6q-4 -1 -5.5 -2t-2 -3
t-1.5 -3l-3.5 -1.5t-4.5 -6.5q-10 0 -18 -16q-4 0 -5.5 -0.5t-2.5 -2.5t-4 -4q-1 0 -4 -5q-1 -1 -3 -2t-2 -2q-2 -1 -6.5 -5t-8.5 -7.5t-6 -3.5v-3q-2 -1 -3.5 -3t-5.5 -3l-13 -15l1 -1q-9 0 -10 -6h-3q-7 0 -7 5v3q0 4 5 5l2 16l9 10q0 7 0.5 10t1.5 3.5t2 1.5t1 4h2v1
l1 16l6 3l2 16l6 5l1 8v6q7 2 7 12h2v8q0 2 4 5.5t4 12.5l7 12v1l1 1h1v5v6h3q0 2 2 4.5t2 4.5v3q0 3 -2.5 3t-7 -0.5t-5.5 -0.5h-318q-12 0 -16 9q-7 0 -10 4t-10 6q0 4 -4 8t-5 7h-5l-3 15l-6 1l-1 10v534q0 10 6 11l4 14l6 4q1 5 4.5 7.5t4.5 5.5h4h2l2 1l1 1l2 1l1 1v1
l1 1l1 1l1 1l3 1l4 1h3l2 1l2 1l1 1l2 1l1 1l6 1h817l5 -1l1 -1l1 -1l3 -1l2 -1l2 -1h3l4 -1l1 -1l2 -1l1 -1l1 -1l1 -1l1 -1l1 -1l2 -1l2 -1l1 -1l1 -1l1 -2h1l1 -1l1 -1l2 -1l1 -1v-1l1 -2l1 -2l1 -1l1 -2l1 -1l2 -1l1 -1l1 -2l1 -3l1 -2l1 -3l1 -1l1 -2v-1l1 -2l1 -2
l1 -7l1 -12v-506l-1 -12v0v0zM476 -65h1l1 1l2 1l1 1l1 1v1l2 5q2 0 3.5 1t3.5 2q2 8 14 16h4v3h2q0 2 0.5 2.5t4.5 0.5v3h3q1 6 7 6q1 3 2.5 4t2.5 3h3q1 4 2 5t3.5 2t4.5 2l-1 8h8q1 3 5.5 6.5t4.5 8.5q7 0 9.5 4.5t7.5 4.5l1 6q10 2 12 10q3 0 9.5 1t11.5 1h22h46h91h91
h45q7 0 19 4q9 3 21 2l4 7h5h6t3.5 2t1.5 6q1 0 3 0.5t4 0.5h2l3 7h5q1 4 5.5 7.5t4.5 7.5q5 1 7.5 5.5t5.5 5.5v4q0 3 3.5 9t4.5 10l2 -3l1 2v577q-2 1 -3 0v1q-1 1 -2 5t-5 7l-4 11h-3l-2 9h-6l-1 7q-3 1 -6 5t-8 4l-1 5h-2v4q-5 0 -9.5 3.5t-10.5 3.5h-7q0 3 -0.5 4
t-2.5 1.5t-3 1.5l-23 1q-5 3 -13 3h-790l-30 -4h-6l-12 -7l-11 -2q-1 -5 -10 -8l-3 -6h-5l-3 -8h-2q-1 0 -5 -1q-1 -5 -4 -7t-3 -4q-1 -1 -2.5 -4t-2.5 -5.5l-1 -2.5h-3v-9q0 -5 -4 -6l-3 -4l-1 -55l-1 -465l3 -56l3 -2l2 -5l1 1v-6q0 -5 3.5 -8t3.5 -5l1 -3l11 -11l4 -7h8
v-3l3 -6q9 0 10 -7l12 -1l3 -5l25 -3q7 -5 9 -5h252q1 0 6 0.5t7.5 0t2.5 -3.5v-8q0 -3 -1 -6.5t-1 -4.5l-6 -2v-18h-4l-4 -2v-8q0 -8 -4 -12t-4 -6v-11q-10 -2 -10 -14v-4q-7 -2 -7 -20q-8 -2 -8 -19v-30q0 -1 1 -5l1 1l3 -4l7 -3q1 -6 3.5 -7t11.5 -1l5 -2v-3h10q5 0 7 4
l15 2l5 7q5 0 11 5.5t7 9.5l8 4v4q4 0 7 5t8 6q3 1 3.5 3t3.5 3q4 2 4 2.5t2 5.5q7 0 8 8h3q1 0 4 1l1 6q5 1 7 2.5t2 2.5t-0.5 2t1 2t5.5 1l-3 -4v0v0zM247 401zM174 401q0 30 21.5 51.5t51.5 21.5t51 -21.5t21 -51.5t-21 -51.5t-51 -21.5t-51.5 21.5t-21.5 51.5zM737 401z
M664 401q0 30 21.5 51.5t51.5 21.5t51.5 -21.5t21.5 -51.5t-21.5 -51.5t-51.5 -21.5t-51.5 21.5t-21.5 51.5zM488 401zM415 401q0 30 21.5 51.5t51.5 21.5t51 -21.5t21 -51.5t-21 -51.5t-51 -21.5t-51.5 21.5t-21.5 51.5z" />
    <glyph glyph-name="dengluming" unicode="&#xe663;" 
d="M968 148h-28l0.5 1.5l0.5 1.5v61q0 58 -41.5 99t-99.5 41t-99 -41t-41 -99v-61v-1.5v-1.5h-16q-19 0 -33 -14t-14 -33v-223q0 -19 14 -33t33 -14h325q19 0 32.5 14t13.5 33v223q0 19 -13.5 33t-33.5 14v0zM732 151v61q0 28 20 48.5t48.5 20.5t48.5 -20.5t20 -48.5v-61
v-1.5v-1.5h-138l0.5 1.5l0.5 1.5v0zM979 -122q0 -5 -3 -8t-8 -3h-324q-5 0 -8 3t-3 8v223q0 5 3 8t8 3h324q5 0 8 -3t3 -8v-223v0zM806 1q-11 0 -19 -7.5t-8 -18.5v-52h54v52q0 11 -8 18.5t-19 7.5v0zM656 207q-26 9 -52 15q-4 2 -8 2h-9q-5 0 -9 -2q-7 -3 -20 -9
q-5 -2 -17 -5q-2 -1 -4.5 -1.5t-3.5 -1.5q-6 -1 -15 -3q-6 -1 -15 -2q-9 -2 -12 -2q-15 -2 -28 -2q-2 0 -5.5 0.5t-4.5 0.5q-62 2 -105 25q-4 2 -8 2h-7h-4q-159 -38 -280 -155q-5 -5 -5 -13v-62q0 -9 2.5 -46t6.5 -76.5t9 -39.5h391h105h26q-32 66 -32 140q0 68 27.5 129
t76.5 106v0zM265 503q0 -14 9.5 -24t22.5 -10h1q5 -70 53.5 -125.5t111.5 -55.5q7 0 15 1l5 1q4 0 9 1q1 1 3.5 1.5l2.5 0.5q2 1 7 2q6 2 8 3l4 2q45 20 76 67.5t35 101.5h1q13 0 22.5 10t9.5 24q0 22 -19 32q10 31 10 64q0 68 -38.5 121.5t-99.5 71.5l-1.5 0.5l-1.5 0.5
q-9 2 -19 4q-5 1 -6 1q-13 2 -23 2q-78 0 -133.5 -59t-55.5 -142q0 -33 10 -64q-19 -9 -19 -32v0zM265 503z" />
    <glyph glyph-name="bianji5" unicode="&#xe617;" 
d="M1009 412l-59 -57l-159 159l58 57q13 13 31 14.5t30 -9.5l105 -103q11 -11 9 -29.5t-15 -31.5v0v0v0zM763 487l161 -157l-383 -378q-6 -6 -14 -8q-1 0 -3 -1l-200 -62q-10 -3 -15 3q-6 6 -3 15l64 196q0 2 1 3q2 12 9 15l73 67h-243q-7 0 -13 7t-6 14t6 14t13 7h281
l272 265v0v0zM491 -35l-98 97l-27 -82l42 -42l83 27v0v0zM758 425q-4 4 -10.5 4t-10.5 -4l-300 -294q-5 -4 -5 -10.5t5 -10.5q4 -3 10 -3t10 3l299 295q11 8 2 20v0v0v0zM90 -149q-21 0 -21 14v801q0 5 1 8.5t4.5 5t4.5 1.5h7.5h8.5h69v-27q0 -7 7.5 -13t15.5 -6t15.5 6
t7.5 13v27h104v-27q0 -7 7 -13t16 -6q8 0 15.5 6t7.5 13v27h95v-27q0 -7 7 -13t16 -6q8 0 15 6t7 13v27h95v-27q0 -7 7.5 -13t15.5 -6t15.5 6t7.5 13v27h80q16 0 16 -15v-132l59 57v75q0 31 -21.5 51.5t-53.5 20.5h-81v49q0 8 -7 13.5t-16 5.5q-8 0 -15.5 -5.5t-7.5 -13.5
v-49h-95v49q0 8 -7 13.5t-16 5.5q-8 0 -15.5 -5.5t-7.5 -13.5v-49h-95v49q0 8 -7 13.5t-15 5.5t-15.5 -5.5t-7.5 -13.5v-49h-104v49q0 8 -7 13.5t-16 5.5q-8 0 -15.5 -5.5t-7.5 -13.5v-49h-68q-42 0 -63.5 -20t-21.5 -52v-800q0 -31 24 -51.5t57 -20.5h629q32 0 53 20.5
t21 51.5v276l-58 -57v-220q0 -14 -16 -14h-630zM588 521h-379q-7 0 -12.5 -7t-5.5 -14q0 -8 5.5 -15t12.5 -7h379q7 0 12.5 7t5.5 14.5t-5.5 14.5t-12.5 7v0v0v0zM588 375h-379q-7 0 -12.5 -7t-5.5 -14q0 -8 5 -15t13 -7h379q7 0 12.5 7.5t5.5 14.5t-5.5 14t-12.5 7v0v0v0z
M588 375z" />
    <glyph glyph-name="u" unicode="&#xe634;" 
d="M779 219q0 -126 -70.5 -197t-196.5 -71q-132 0 -200.5 68t-68.5 200v432h46h46v-425q0 -95 45 -144.5t131.5 -49.5t131 49.5t44.5 144.5v425h46h46v-432z" />
    <glyph glyph-name="fenxiang1" unicode="&#xe639;" 
d="M841 788q66 -25 95.5 -89t5.5 -130t-88 -96t-130.5 -5.5t-96 88.5t-5.5 130t88 96t131 6v0zM279 434q61 -22 88.5 -81t5 -120.5t-81.5 -89t-120.5 -5t-89 81.5t-5 120.5t81.5 89t121 4.5v0zM862 82q56 -21 81 -75t4.5 -110t-74.5 -81.5t-110 -5t-81.5 75t-5 110.5t75 81
t110.5 5v0zM284 238l29 44l497 -322l-29 -44l-497 322v0zM793 682l30 -44l-559 -382l-30 43l559 383v0zM793 682z" />
    <glyph glyph-name="jinlingyingcaiwangtubiao24" unicode="&#xe6b7;" 
d="M518 -125q-6 0 -11 3q-17 12 -42.5 30.5t-87 67t-112.5 94.5t-102.5 104.5t-72.5 104.5q-2 2 -11 21t-18 57t-9.5 80.5t20 95.5t63.5 98q4 3 9.5 8.5t23 17.5t35.5 21t44.5 16.5t52.5 7.5q120 0 210 -144q14 23 31.5 44t44 44.5t63 38t76.5 14.5q56 0 116 -31
q6 -3 14 -8.5t28 -22t36 -35t30.5 -49t19.5 -63.5q5 -38 5.5 -69t-8.5 -73.5t-30 -83.5q-10 -19 -44 -62.5t-60 -67.5q-70 -67 -166.5 -148.5t-137.5 -107.5q-5 -3 -10 -3z" />
    <glyph glyph-name="zan1" unicode="&#xe63f;" horiz-adv-x="1025" 
d="M994 79q-18 9 -16 30.5t27 46.5q24 27 17.5 54.5t-33.5 40.5q-17 8 -24.5 17.5t-2 20t26.5 19.5q30 11 29.5 55.5t-31.5 80.5q-34 39 -278 23l-23 -1v0q3 2 3 145q0 101 -28 139t-84 36q-18 0 -28.5 -5t-17 -13t-11 -26.5t-7.5 -38t-10 -56.5t-16 -74q-12 -47 -38 -94
t-54 -80t-55 -59t-44 -39l-18 -13v-386q10 -14 27 -25.5t31 -17t31 -11.5t21 -8q9 -4 65 -10.5t105.5 -11t51.5 -4.5q4 0 11 0.5t30 2.5t45 4.5t52 6.5t56.5 8t53.5 9.5t47 11t33.5 13t15.5 14.5q8 24 3 39t-2 27t23 20q27 10 34.5 34.5t0.5 46t-19 28.5v0zM0 295v-380
q0 -28 20 -48.5t49 -20.5h137v518h-137q-29 0 -49 -20.5t-20 -48.5v0zM0 295z" />
    <glyph glyph-name="share2" unicode="&#xe63b;" 
d="M384 306q-1 12 9 17q27 14 87 44q153 78 192 99q9 4 14 6t12.5 0.5t13.5 -7.5q1 -2 4.5 -3t4.5 -2q72 -43 150 -4q82 42 87 137q-1 25 -2 26q-6 53 -46 91.5t-91 44.5q-44 5 -87 -14.5t-67 -56.5q-27 -44 -27 -95q0 -9 -6 -12l-58 -29q-48 -25 -93 -47q-122 -63 -146 -74
q-7 -4 -15 2q-47 33 -97.5 33t-95.5 -34q-76 -58 -59 -156q10 -58 60 -96q40 -31 89 -33t92 26q10 7 19 2l37 -18.5t38 -19.5q10 -5 88.5 -45t119.5 -61q15 -8 22 -16.5t8 -25.5q4 -72 75 -119q24 -16 67 -21q87 -10 141 60q56 73 20 162q-20 48 -69 74t-99 18
q-48 -8 -76 -33q-9 -8 -17 -3q-13 6 -37 18l-32 16q-39 20 -111.5 57t-101.5 52q-15 7 -17 11t-1 20q1 6 1 9z" />
    <glyph glyph-name="canyu" unicode="&#xe732;" 
d="M959 -49v0q0 4 -1 8q-16 122 -107 205q-47 43 -107 66q52 32 83 85.5t31 115.5q0 97 -69 166t-166.5 69t-166 -69t-68.5 -166q0 -63 30.5 -116t82.5 -85q-59 -23 -107 -66q-90 -82 -107 -203q-1 -4 -1 -9v-3v-1q0 -11 8.5 -19.5t20 -8.5t20 8t8.5 20v3v1v4q14 100 89 168
t176 73q8 -1 14.5 -1t14.5 1q101 -5 176 -73.5t90 -168.5v0v-3v-4v0q0 -12 8.5 -20t20 -8t19.5 8t9 20l-1 3v0zM443 431q0 75 52.5 127.5t127 52.5t127 -52.5t52.5 -127.5q0 -70 -47 -121t-116 -58q-8 1 -16 1t-17 -1q-69 6 -116 57.5t-47 121.5v0zM426 685h-3q-11 1 -22 1
q-97 0 -166 -68.5t-69 -166.5q0 -62 31 -115.5t83 -85.5q-60 -23 -107 -66q-90 -82 -107 -203q-2 -4 -2 -9l1 -3v0q0 -12 8 -20.5t20 -8.5t20 8.5t9 19.5l-1 4v0v4q15 100 90 168t175 73h1.5h0.5h3q12 0 20 8t8 20q0 17 -15 25q-5 2 -10 3h-3h-4l-2 -1q-69 7 -116.5 58
t-47.5 121v0q0 75 53 127.5t127 52.5l26 -1q11 0 19 8t8 20q0 11 -8.5 19t-19.5 8z" />
    <glyph glyph-name="dengluming1" unicode="&#xe664;" 
d="M968 148h-28l0.5 1.5l0.5 1.5v61q0 58 -41.5 99t-99.5 41t-99 -41t-41 -99v-61v-1.5v-1.5h-16q-19 0 -33 -14t-14 -33v-223q0 -19 14 -33t33 -14h325q19 0 32.5 14t13.5 33v223q0 19 -13.5 33t-33.5 14v0zM732 151v61q0 28 20 48.5t48.5 20.5t48.5 -20.5t20 -48.5v-61
v-1.5v-1.5h-138l0.5 1.5l0.5 1.5v0zM979 -122q0 -5 -3 -8t-8 -3h-324q-5 0 -8 3t-3 8v223q0 5 3 8t8 3h324q5 0 8 -3t3 -8v-223v0zM806 1q-11 0 -19 -7.5t-8 -18.5v-52h54v52q0 11 -8 18.5t-19 7.5v0zM656 207q-26 9 -52 15q-4 2 -8 2h-9q-5 0 -9 -2q-7 -3 -20 -9
q-5 -2 -17 -5q-2 -1 -4.5 -1.5t-3.5 -1.5q-6 -1 -15 -3q-6 -1 -15 -2q-9 -2 -12 -2q-15 -2 -28 -2q-2 0 -5.5 0.5t-4.5 0.5q-62 2 -105 25q-4 2 -8 2h-7h-4q-159 -38 -280 -155q-5 -5 -5 -13v-62q0 -9 2.5 -46t6.5 -76.5t9 -39.5h391h105h26q-32 66 -32 140q0 68 27.5 129
t76.5 106v0zM265 503q0 -14 9.5 -24t22.5 -10h1q5 -70 53.5 -125.5t111.5 -55.5q7 0 15 1l5 1q4 0 9 1q1 1 3.5 1.5l2.5 0.5q2 1 7 2q6 2 8 3l4 2q45 20 76 67.5t35 101.5h1q13 0 22.5 10t9.5 24q0 22 -19 32q10 31 10 64q0 68 -38.5 121.5t-99.5 71.5l-1.5 0.5l-1.5 0.5
q-9 2 -19 4q-5 1 -6 1q-13 2 -23 2q-78 0 -133.5 -59t-55.5 -142q0 -33 10 -64q-19 -9 -19 -32v0zM265 503z" />
    <glyph glyph-name="tuichu" unicode="&#xe603;" 
d="M110 812v-219h146v73h585v-732h-585v73h-146v-219h878v1024h-878zM402 7l366 293l-366 293v-147h-366v-292h366v-147z" />
    <glyph glyph-name="liulan" unicode="&#xe69e;" 
d="M89 442q8 11 26 27q37 34 82 63q144 91 315 91t315 -91q45 -29 82 -63q17 -16 26 -27q9 -10 22 -11t23.5 7.5t11.5 21.5t-7 23q-11 13 -33 33q-41 38 -91 70q-160 101 -349 101t-349 -101q-50 -32 -91 -70q-22 -20 -33 -33q-8 -10 -7 -23t11.5 -21.5t23.5 -7.5t22 11z
M320 302.5q0 -79.5 56 -135.5t136 -56t136 56t56 135.5t-56 136t-136 56.5t-136 -56.5t-56 -136zM640 303q0 -53 -37.5 -90.5t-90.5 -37.5t-90.5 37.5t-37.5 90.5t37.5 90.5t90.5 37.5t90.5 -37.5t37.5 -90.5zM935 158q-8 -11 -26 -27q-37 -34 -82 -63q-144 -91 -315 -91
t-315 91q-45 29 -82 63q-18 16 -26 27q-9 10 -22 11t-23.5 -7.5t-11.5 -21.5t7 -23q12 -14 33 -33q41 -38 91 -70q160 -101 349 -101t349 101q50 32 91 70q21 19 33 33q8 10 7 23t-11.5 21.5t-23.5 7.5t-22 -11z" />
    <glyph glyph-name="fenxiang2" unicode="&#xe67e;" 
d="M756 2h-607v438h140q4 5 11.5 14t34.5 34t58 45h-291q-19 0 -32.5 -14t-13.5 -33v-530q0 -19 13.5 -32.5t32.5 -13.5h701q19 0 33 13.5t14 32.5v265l-94 -76v-143v0zM679 377v-156l311 233l-311 234v-145q-239 0 -339 -206q-46 -96 -51 -194q42 69 77.5 110.5t80.5 71
t99.5 41t132.5 11.5v0zM679 377z" />
    <glyph glyph-name="zengpin" unicode="&#xe65c;" horiz-adv-x="1025" 
d="M716 192h-167q-23 0 -20 -20v-20h205v18q0 22 -18 22zM529 85q-1 -7 3 -11t14 -4h170q18 0 18 15v25h-205v-25zM501 440v-103q-2 -25 18 -22h80v145h-80q-20 0 -18 -20zM536 442q15 5 25 -12q10 -22 28 -70q2 -23 -15 -30q-23 -3 -25 17q-3 5 -15 33q-5 17 -10 34.5
t12 27.5zM896 812h-768q-53 0 -90.5 -37.5t-37.5 -90.5v-768q0 -53 37.5 -90.5t90.5 -37.5h768q53 0 90.5 37.5t37.5 90.5v768q0 53 -37.5 90.5t-90.5 37.5zM244 517q-5 45 40 43h102q35 0 35 -43v-327q-2 -22 -20 -22q-20 0 -20 22v305q-2 22 -22 25h-53q-25 0 -22 -25
v-290q-3 -25 -23 -25q-17 2 -17 28v309zM254 25q-23 -18 -38 -3q-12 20 8 40q90 63 82 245v158q0 10 5 15t15 5q18 -3 20 -23v-129q0 -78 -5 -115q-2 -43 -12 -75q-20 -65 -75 -118zM439 35q-18 -10 -33 10q-17 25 -50 65q-10 13 -12 20q-15 18 0 33q17 9 35 -8
q25 -28 65 -82q12 -23 -5 -38zM784 72q2 -52 -43 -47h-215q-52 -5 -45 47v125q-7 43 50 40h210q45 0 43 -45v-120zM796 317q3 -50 -47 -45h-253q-47 -5 -42 48v145q-5 42 47 40h40q-5 5 -12 20q-10 15 -13 22q-10 18 8 30q17 8 30 -10q0 -2 2 -10q20 -32 28 -40q2 -7 2 -12
h73q19 31 37 63q10 14 28 7q15 -10 7 -28q-20 -29 -25 -42h35q60 2 55 -33v-155zM734 460h-88v-145h85q20 -5 18 20v105q0 11 -4 16t-11 4zM719 380q-10 -30 -10 -38q-10 -22 -30 -17q-15 8 -8 33q0 2 8 22q10 35 12 43q8 17 25 15q18 -8 13 -25q-3 -12 -10 -33z" />
    <glyph glyph-name="shijian" unicode="&#xe642;" 
d="M512 636q91 0 168.5 -45t122.5 -122.5t45 -169t-45 -169t-122.5 -122.5t-168.5 -45t-168.5 45t-122.5 122.5t-45 169t45 169t122.5 122.5t168.5 45zM512 667q-100 0 -184.5 -49.5t-133.5 -134t-49 -184t49 -184t133.5 -133.5t184.5 -49t184.5 49t133.5 133.5t49 184
t-49 184t-133.5 134t-184.5 49.5v0v0zM687 162q-4 0 -7 3l-176 138q-4 4 -4 10v246q0 5 3.5 8.5t8.5 3.5t8.5 -3.5t3.5 -8.5v-241l171 -134q9 -8 2 -17q-4 -5 -10 -5v0zM687 162z" />
    <glyph glyph-name="check5" unicode="&#xe66f;" 
d="M854 483l-57 58q-7 7 -18 7t-21 -7l-336 -336l-160 160q-7 7 -17.5 7t-20.5 -7l-58 -58q-7 -7 -7 -18t7 -20l180 -179v0l57 -58q7 -7 18 -7t21 7l412 416q8 7 8 17.5t-8 17.5z" />
    <glyph glyph-name="tupianyanzhengma" unicode="&#xe678;" horiz-adv-x="1304" 
d="M1303 -130q0 -34 -23.5 -58t-57.5 -24h-1141q-33 0 -57 24t-24 58v849q0 34 29.5 63.5t63.5 29.5h1117q34 0 63.5 -29.5t29.5 -63.5v-849zM140 672v-469l178 180q24 24 58 24t57 -24l483 -455h79l-253 226l146 147q24 24 58 24t58 -24l160 -161v532h-1024z" />
    <glyph glyph-name="shenhebutongguounotpass" unicode="&#xe618;" 
d="M691 735q19 0 26 -6h6q13 0 13 6l32 32q6 7 6 19q0 5 -4 9t-8 4q-39 13 -71 13h-179l77 -77h102zM762 50q-3 -3 -7.5 -8.5t-22.5 -14.5t-41 -9h-512q-38 0 -70 32t-32 71v512q0 38 32 70t115 32v0q0 3 1.5 6t3.5 5l1 2l64 64h-115q-66 0 -128 -51q-51 -62 -51 -128v-512
q0 -67 51 -128q51 -51 128 -51h512q25 0 47.5 5t36.5 12.5t24.5 15t15.5 13.5l4 5zM1018 191v0l-224 224l224 224v0l6 7q0 19 -6 25l-109 109q-7 6 -26 6q-6 0 -6 -6v0l-224 -224l-224 224v0l-7 6q-19 0 -25 -6l-109 -109q-6 -6 -6 -25q0 -7 6 -7v0l224 -224l-224 -224v0
l-6 -6q0 -19 6 -26l109 -109q6 -6 25 -6q7 0 7 6v0l224 224l224 -224v0l6 -6q19 0 26 6l109 109q6 7 6 26z" />
    <glyph glyph-name="iconfonticonfontclose" unicode="&#xe619;" 
d="M557 287l266 264q9 9 9 22t-9.5 22.5t-22.5 9.5t-23 -9l-265 -264l-263 264q-9 9 -22.5 9t-23 -9t-9.5 -22.5t10 -22.5l263 -264l-265 -264q-10 -9 -10 -22.5t9.5 -22.5t22.5 -9t23 9l265 264l265 -267q10 -9 23 -9t22.5 9.5t9.5 22.5t-9 23z" />
    <glyph glyph-name="weitongguoshenhe" unicode="&#xe61a;" horiz-adv-x="1055" 
d="M910 -17l1 -1q65 -66 117 -119q1 -1 5.5 -5t6.5 -6.5t6.5 -7.5t5 -8.5t2.5 -10.5t-1 -11q-3 -8 -7 -14q-8 -11 -24.5 -12t-27.5 7q-22 22 -66.5 67.5t-67.5 68.5q-1 0 -1 -1q-2 -1 -3.5 -2.5l-3.5 -3.5t-3 -4q-4 -3 -11 -10.5t-11 -11.5l-22 -22t-26 -25.5t-22 -21.5
q-2 -3 -13.5 -14.5t-17.5 -18.5q-14 -8 -29 -4.5t-22 13.5q-1 2 -1.5 4l-1 4t-0.5 4q-3 6 -2 12.5t1.5 9.5t4.5 8t6.5 7.5l6.5 6.5l6 6q3 2 81 82l11.5 11.5l11.5 11.5q9 9 10 11q-2 1 -4 2.5t-4 4t-3 3.5l-22 23q-52 51 -71 71q-4 3 -11.5 10t-11.5 11t-9 11.5t-7 14.5
q-3 11 3.5 20.5t15.5 14.5q1 1 5.5 1.5t5.5 1.5q9 0 15.5 -1t12.5 -5t8.5 -6t9.5 -9t8 -9q12 -11 38 -37l40 -40q2 -2 9.5 -10.5t14 -14.5t9.5 -7q22 23 66.5 67.5t65.5 66.5q13 8 28.5 5t22.5 -13q6 -8 6 -21.5t-6 -21.5q-22 -22 -67 -66.5t-67 -66.5v0zM288 139h224
q13 0 22.5 -9.5t9.5 -22.5t-9.5 -22.5t-22.5 -9.5h-224q-13 0 -22.5 9.5t-9.5 22.5t9.5 22.5t22.5 9.5v0zM704 523h-416q-13 0 -22.5 9.5t-9.5 22.5t9.5 22.5t22.5 9.5h416q13 0 22.5 -9.5t9.5 -22.5t-9.5 -22.5t-22.5 -9.5v0zM704 299h-416q-13 0 -22.5 9.5t-9.5 22.5
t9.5 22.5t22.5 9.5h416q13 0 22.5 -9.5t9.5 -22.5t-9.5 -22.5t-22.5 -9.5v0zM960 203q-13 0 -22.5 9.5t-9.5 22.5v1v1v0v444q0 43 -8 55q-2 2 -4.5 4t-5 3t-6.5 2t-7 1.5t-8 0.5h-7.5h-9h-8.5h-669h-66h-4h-8h-8.5h-8t-8 -0.5t-6.5 -1.5t-6.5 -2t-5 -3t-4.5 -4
q-7 -10 -7 -55v-128v-465v-131v-8v-9t0.5 -8.5t0.5 -8.5t0.5 -7.5t1.5 -7.5t2 -6.5t3 -6t4 -3.5q11 -8 44 -8h455v-1h1.5h0.5q13 0 22.5 -9.5t9.5 -22.5t-9.5 -22.5t-22.5 -9.5q-7 0 -13 3h-444q-28 0 -36 2q-55 16 -74 58q-2 5 -3.5 10.5t-2.5 12.5t-1.5 12t-1 14
t-0.5 13.5v15.5v14v161v424v120q0 52 6 66q18 42 53 58q5 2 19 7q2 0 6 0.5t6 1.5h39h61h709q2 -1 6 -1.5t6 -0.5q14 -5 20 -7q34 -16 52 -58q7 -16 7 -66v-434q2 -6 2 -10q0 -13 -9.5 -22.5t-22.5 -9.5v0zM960 203z" />
    <glyph glyph-name="underline" unicode="&#xe630;" 
d="M742 -110h-460q-11 0 -18.5 7.5t-7.5 18.5t7.5 18.5t18.5 7.5h460q11 0 18.5 -7.5t7.5 -18.5t-7.5 -18.5t-18.5 -7.5zM512 44q-106 0 -181 75t-75 181v384q0 11 7.5 18.5t18 7.5t18 -7.5t7.5 -18.5v-384q0 -85 60 -145t145 -60t145 60t60 145v384q0 11 7.5 18.5t18 7.5
t18 -7.5t7.5 -18.5v-384q0 -106 -75 -181t-181 -75z" />
    <glyph glyph-name="star" unicode="&#xe600;" horiz-adv-x="1048" 
d="M253 -200q-14 0 -25 8q-21 16 -17 42l43 299l-217 211q-19 19 -11 44.5t34 29.5l296 45l129 273q11 24 38 24v0q26 0 37 -24l133 -271l295 -42q26 -4 34 -29.5t-11 -44.5l-213 -213l39 -295q2 -5 2 -11q0 -18 -12.5 -30.5t-29.5 -12.5v0q-11 0 -20 5l-250 140l-254 -143
q-10 -5 -20 -5v0z" />
    <glyph glyph-name="huitui" unicode="&#xe61b;" 
d="M512 -191q-100 0 -191 39t-156.5 104.5t-104.5 156.5t-39 191t39 191t104.5 156.5t156.5 104.5t191 39t191 -39t156.5 -104.5t104.5 -156.5t39 -191t-39 -191t-104.5 -156.5t-156.5 -104.5t-191 -39zM266 626l-41 -29q34 -45 87 -128l46 33q-58 83 -92 124zM757 610h-329
v-435q0 -26 -19 -44l37 -49q19 13 37 23q63 30 126 54q-3 25 -4 52q-75 -33 -127 -53v170h230v-17h49v299v0zM783 315q-69 -38 -134 -69q-50 30 -98 60l-27 -36q147 -93 254 -171l33 46q-47 30 -118 74q59 24 124 51zM454 60q-95 3 -135 66v280h-128v-49h77v-220
q-27 -25 -83 -80l26 -54q52 62 79 87q46 -74 156 -76q182 -4 372 -3q11 31 19 52q-198 -5 -383 -3zM478 448h230v-75h-230v75zM478 565h230v-74h-230v74z" />
    <glyph glyph-name="huitui6" unicode="&#xe61c;" 
d="M727 598h-248v-80h248v80zM727 471h-248v-80h248v80zM516 800q-205 0 -350.5 -145.5t-145.5 -350.5t145.5 -350.5t350.5 -145.5t350.5 145.5t145.5 350.5t-145.5 350.5t-350.5 145.5zM844 280q-69 -27 -133 -54q76 -47 126 -80l-35 -49q-115 83 -273 183l29 39
q57 -35 106 -64q70 34 144 74zM426 179v467h354v-321h-53v18h-248v-183q57 22 138 57q0 -29 3 -56q-67 -25 -135 -58q-20 -11 -39 -25l-40 53q20 20 20 48zM252 663q36 -44 99 -133l-50 -36q-57 90 -94 138zM845 2q-270 0 -400 3q-118 2 -167 82q-29 -26 -85 -94l-29 59
q62 59 90 85v237h-83v52h138v-300q43 -68 144 -71q200 -3 412 3z" />
    <glyph glyph-name="zeng01" unicode="&#xe650;" horiz-adv-x="1044" 
d="M555.5 754q-92.5 0 -176.5 -36t-144.5 -97t-96.5 -145t-36 -176t36 -176t96.5 -145t144.5 -97t176.5 -36t176.5 36t144.5 97t96.5 145t36 176t-36 176t-96.5 145t-144.5 97t-176.5 36zM555.5 -95q-107.5 0 -198 53t-143.5 144t-53 198t53 198t143.5 144t198 53t198.5 -53
t143.5 -144t52.5 -198t-52.5 -198t-143.5 -144t-198.5 -53zM406 272v168h39v-168q0 -26 -2 -51q47 -55 92 -104l-49 -37q-8 13 -25 35q-22 30 -32 49q-25 -59 -74 -104q-11 19 -35 57q86 65 86 155zM388 213h-47v303h170v-301h-48v248h-75v-250zM556 522l53 18q2 -4 10 -16
q10 -21 18 -35h43q13 23 25 51q8 -2 22 -6q10 -4 37 -10q-6 -6 -16 -20q-6 -11 -10 -15h53v-192h-264v192h51q-4 6 -10 17q-8 12 -12 16zM596 62h-57v214h238v-214h-58v20h-123v-20zM574 440v-94h63v94h-63zM578 416l27 12q4 -6 12 -25q10 -20 16 -34q-6 -3 -18 -7
q-6 -4 -10 -6q-2 6 -9 17q-4 12 -18 43zM719 201v28h-123v-28h123zM596 156v-31h123v31h-123zM680 346h62v94h-62v-94zM711 428l29 -10q-15 -27 -31 -62q-12 10 -27 13l15 30q14 28 14 29z" />
    <glyph glyph-name="chakan1" unicode="&#xe62c;" 
d="M688 488v196h-619v-643h291q20 -69 72 -128h-363q-29 0 -49 18.5t-20 45.5v771q0 27 20 45.5t49 18.5h619q28 0 48 -18.5t20 -45.5v-260q-4 0 -10.5 1.5t-12.5 2t-11 0.5q-33 -4 -34 -4zM618 476q-68 -20 -112 -51h-368v64h482v-13h-2zM138 619h482v-64h-482v64zM611 350
q-77 0 -130.5 -51t-53.5 -122q0 -72 57.5 -126.5t133.5 -54.5q77 0 131 51t54 122t-58 126t-134 55zM1015 -162l-41 -38q-12 -12 -29 -12t-28 12l-164 153q-62 -34 -135 -34q-108 0 -189.5 74t-83.5 176h-207v64h214q11 38 27 64h-241v64h294v-1q76 67 179 67
q110 0 192.5 -77t82.5 -181q0 -70 -39 -129l162 -153q29 -28 6 -49z" />
    <glyph glyph-name="yanzhengma" unicode="&#xe679;" 
d="M526 706h394v-394h-394v394zM132 313h394v-395h-394v395zM117 720v-819h819v819h-819zM920 -81h-787v787h787v-787z" />
    <glyph glyph-name="numberone" unicode="&#xe604;" 
d="M512 896q-139 0 -257 -68.5t-186.5 -186.5t-68.5 -257t68.5 -257t186.5 -186.5t257 -68.5t257 68.5t186.5 186.5t68.5 257t-68.5 257t-186.5 186.5t-257 68.5zM512 -48q-179 0 -305.5 126.5t-126.5 305.5t126.5 305.5t305.5 126.5t305.5 -126.5t126.5 -305.5
t-126.5 -305.5t-305.5 -126.5zM499 494h-123v50h39q20 0 38.5 7t31.5 19q14 13 21 31q8 17 8 39h54v-512h-69v366z" />
    <glyph glyph-name="mimadenglu" unicode="&#xe6ab;" 
d="M773 389h-15v0h-130v0h-246v150q0 38 39 71t91 33t91.5 -33t39.5 -71v-37v-1v0v-7v0q3 -19 17 -32t33 -13t33.5 13t16.5 32h1v45q0 86 -68 147t-164 61t-164 -61t-68 -147v-150h-29q-36 0 -61.5 -26t-25.5 -63v-358q0 -37 25.5 -63t61.5 -26h522q36 0 61.5 26t25.5 63
v358q0 37 -25.5 63t-61.5 26v0zM556 59v-41q0 -19 -13 -32.5t-31 -13.5t-31 13.5t-13 32.5v41q-26 13 -42 38t-16 55q0 43 30 73t72 30t71.5 -30t29.5 -73q0 -30 -15.5 -55t-41.5 -38v0zM556 59z" />
    <glyph glyph-name="mima" unicode="&#xe6d1;" 
d="M781 457h-115v43q0 25 -3 48.5t-13 51t-26 47.5t-45 33.5t-67 13.5q-39 0 -69 -15t-45.5 -36t-25 -50t-12 -50t-2.5 -43v-43h-115v43q0 142 73.5 227t195.5 85t195.5 -85t73.5 -227v-43zM589 143q0 32 -22.5 55t-54.5 23t-54.5 -23t-22.5 -55q0 -46 39 -68v-90
q0 -16 11 -28t27 -12t27 12t11 28v90q39 22 39 68zM896 300v-394q0 -49 -34 -83.5t-81 -34.5h-538q-47 0 -81 34.5t-34 83.5v394q0 49 34 83.5t81 34.5h538q47 0 81 -34.5t34 -83.5z" />
    <glyph glyph-name="share3" unicode="&#xe6c0;" 
d="M853 175q-39 22 -82.5 15.5t-73.5 -37.5l-339 195q10 36 0 71l339 196q30 -31 73.5 -37.5t82.5 15.5q46 27 59.5 78t-13 97t-77.5 59.5t-97 -12.5q-39 -22 -55 -63.5t-4 -82.5l-339 -196q-12 13 -28 22q-23 13 -48 16q-43 5 -80 -16q-46 -27 -60 -78t13 -97
q19 -34 54 -51v0h0.5h0.5q38 -19 78.5 -11.5t69.5 37.5l339 -196q-12 -42 4 -83t55 -63q46 -27 97.5 -13t78 60t12.5 97t-60 78z" />
    <glyph glyph-name="zeng" unicode="&#xe651;" 
d="M383 178q56 -59 89 -99l-33 -28q-32 39 -82 96q-14 -52 -87 -122q-14 18 -31 35q61 45 80 96.5t19 167.5v136h38v-120q0 -120 -17 -181zM267 549h179v-355h-38v318h-103v-323h-38v360zM554 580q29 -28 50 -56l-26 -22h75q31 43 54 78l36 -24q-22 -26 -43 -54h85v-200
h-304v200h87q-12 18 -40 52l-2 2zM505 262h256v-242h-37v26h-179v-26h-40v242v0zM519 467v-129h97v129h-97zM533 432l28 14q8 -12 24 -40q9 -21 16 -31l-33 -16q-7 19 -25 54q-9 17 -10 19zM545 225v-54h179v54h-179zM545 133v-49h179v49h-179zM747 467h-94v-129h94v129z
M733 434q-26 -52 -40 -75l-28 14q24 43 38 75zM512 767q95 0 181.5 -37t149 -99.5t99.5 -149t37 -181.5t-37 -181.5t-99.5 -149t-149 -99.5t-181.5 -37t-181.5 37t-149 99.5t-99.5 149t-37 181.5t37 181.5t99.5 149t149 99.5t181.5 37zM512 812q-139 0 -257 -68.5
t-186.5 -186.5t-68.5 -257t68.5 -257t186.5 -186.5t257 -68.5t257 68.5t186.5 186.5t68.5 257t-68.5 257t-186.5 186.5t-257 68.5v0z" />
    <glyph glyph-name="7-copy" unicode="&#xe659;" 
d="M566 103l261 -113l126 846l-887 -522l233 -110l563 512l-452 -564l-6 -240z" />
    <glyph glyph-name="mima1" unicode="&#xe7c6;" 
d="M795 -126h-566q-52 0 -88.5 39t-36.5 94v397q0 55 36.5 94t88.5 39h33q-5 25 -5 51v51q0 106 74.5 180.5t180.5 74.5t180.5 -74.5t74.5 -180.5v-51q0 -25 -5 -51h33q52 0 88.5 -39t36.5 -94v-397q0 -55 -36.5 -94t-88.5 -39zM461 194v-116q0 -21 15 -36t36 -15t36 15
t15 36v116q24 13 38 36.5t14 51.5q0 42 -30 72t-73 30t-73 -30t-30 -72q0 -28 14 -51.5t38 -36.5zM665 639q0 64 -45 108.5t-108 44.5t-108 -44.5t-45 -108.5v-102h306v102z" />
    <glyph glyph-name="check6" unicode="&#xe88f;" 
d="M829 701q-64 63 -145.5 97t-171.5 34t-171.5 -34t-145 -97.5t-97.5 -145t-34 -171.5t34 -171.5t97.5 -145t145 -97.5t171.5 -34t171.5 34t145 97.5t97.5 145t34 171.5t-34 171.5t-97 145.5v0zM758 515l-305 -305v0h-0.5h-0.5q-8 -9 -21 -9q-4 0 -8 1v0l-4 2q-5 2 -9 6v0
l-144 144q-9 9 -9 21.5t9 21.5t21.5 9t20.5 -9l123 -123l284 284q9 9 21.5 9t21.5 -9t9 -21.5t-9 -21.5v0zM758 515z" />
    <glyph glyph-name="email2" unicode="&#xe669;" 
d="M512 845q-94 0 -179 -36.5t-147 -98.5t-98.5 -147t-36.5 -179t36.5 -179t98.5 -147t147 -98.5t179 -36.5t179 36.5t147 98.5t98.5 147t36.5 179t-36.5 179t-98.5 147t-147 98.5t-179 36.5zM273 518q2 16 15 26.5t30 10.5v0h388q17 0 30 -10.5t15 -26.5v-4l-239 -142
l-239 142v4zM751 254q0 -17 -13 -29t-32 -12h-388q-19 0 -32 12t-13 29v223l239 -142l239 142v-223z" />
    <glyph glyph-name="check7" unicode="&#xe670;" 
d="M955 572.5q0 -22.5 -16 -38.5l-492 -492q-16 -16 -38.5 -16t-38.5 16l-285 285q-16 16 -16 39t16 39l78 77q16 16 39 16t39 -16l168 -168l374 375q16 16 39 16t39 -16l78 -78q16 -16 16 -38.5z" />
    <glyph glyph-name="53" unicode="&#xe657;" 
d="M842 243h-262v76h262q28 0 48 18.5t20 46.5t-20 47.5t-48 19.5h-164l194 337q14 25 6.5 52t-32 41.5t-51.5 7t-41 -32.5l-233 -405v0h-9h-1l-232 405q-14 25 -41 32.5t-51.5 -7t-32 -41.5t6.5 -52l194 -337h-175q-31 0 -49 -18.5t-18 -47.5t17.5 -47t46.5 -19h272v-76
h-268q-28 0 -48 -19t-20 -47.5t20 -47t48 -18.5h268v-164q0 -29 18.5 -49t46.5 -20t47 20t19 49v164h262q28 0 48 18.5t20 47t-20 47.5t-48 19z" />
    <glyph glyph-name="password" unicode="&#xe66a;" 
d="M672 832q-119 0 -203.5 -84.5t-84.5 -203.5q0 -42 15 -89l-335 -391v-72q0 -23 16.5 -39.5t39.5 -16.5h72v64h128v128h128v128h64l31 31q63 -31 129 -31q119 0 203.5 84.5t84.5 203.5t-84.5 203.5t-203.5 84.5zM672 384q-66 0 -113 47t-47 113t47 113t113 47t113 -47
t47 -113t-47 -113t-113 -47z" />
    <glyph glyph-name="fanhui" unicode="&#xe605;" 
d="M453 793l-389 -338l389 -337v227l66 16q203 38 303 -49q109 -96 61 -337q5 9 12 23.5t23.5 59.5t26.5 88t14 101t-6.5 107t-44.5 97.5t-89.5 81t-151 49.5t-221.5 10l7 201v0zM453 793z" />
    <glyph glyph-name="momentmessage" unicode="&#xe649;" horiz-adv-x="1093" 
d="M684 76q-28 0 -65.5 -10t-61.5 -24l-235 -137q-49 -28 -77.5 -8.5t-20.5 75.5l10 71q2 14 -7 23.5t-23 9.5h-67q-57 0 -97 40t-40 97v547q0 56 40 96t97 40h819q56 0 96 -40t40 -96v-547q0 -57 -40 -97t-96 -40h-272zM239 144q28 0 45 -19.5t13 -47.5l-12 -74
q-4 -28 10 -37t37 6l208 135q24 16 61 26.5t65 10.5h290q29 0 49 20t20 48v548q0 28 -20 48t-48 20h-820q-28 0 -48 -20t-20 -48v-548q0 -28 20 -48t48 -20h102zM273 384q28 0 48 20t20 48.5t-20 48.5t-48 20t-48 -20t-20 -48.5t20 -48.5t48 -20zM546 384q28 0 48 20
t20 48.5t-20 48.5t-48 20t-48 -20t-20 -48.5t20 -48.5t48 -20zM819 384q28 0 48 20t20 48.5t-20 48.5t-48 20t-48 -20t-20 -48.5t20 -48.5t48 -20z" />
    <glyph glyph-name="u1" unicode="&#xe635;" 
d="M708 896q11 -62 11 -152v-483q0 -129 -66 -210q-76 -88 -231 -88q-142 0 -219.5 78t-77.5 220v483q0 96 10 152h-124q11 -62 11 -152v-487q0 -177 98 -278q100 -107 300 -107q96 0 173 27t127 77q102 106 102 281v490q0 87 10 149h-124z" />
    <glyph glyph-name="audit-not-pass" unicode="&#xe61d;" 
d="M801 109q0 11 -8 18l-72 72l72 73q8 7 8 18t-8 18l-36 36q-7 8 -18 8t-18 -8l-72 -72l-73 72q-7 8 -18 8t-18 -8l-36 -36q-8 -7 -8 -18t8 -18l72 -73l-72 -72q-8 -7 -8 -18t8 -18l36 -36q7 -8 18 -8t18 8l73 72l72 -72q7 -8 18 -8t18 8l36 36q8 7 8 18v0zM385 207
q0 109 76.5 185t184.5 76q109 0 185 -76t76 -185q0 -108 -76.5 -184t-184.5 -76t-184.5 76t-76.5 184v0zM119 70h252q40 -72 111.5 -115t156.5 -43q127 0 216.5 89.5t89.5 217.5q0 102 -61.5 183t-157.5 110v344h-607v-786zM601 722q0 -6 -4.5 -11t-11.5 -5h-302
q-8 0 -12.5 5t-4.5 11v33q0 7 5 12t12 5h302q7 0 11.5 -5t4.5 -12v-33z" />
    <glyph glyph-name="audit-not-pass2" unicode="&#xe61e;" 
d="M841 77q0 10 -7 17l-68 67l68 68q7 6 7 17t-7 18l-34 33q-6 8 -16.5 8t-17.5 -8l-67 -68l-68 68q-7 8 -17 8q-11 0 -17 -8l-34 -33q-7 -7 -7 -18t7 -17l68 -68l-68 -67q-7 -7 -7 -17q0 -11 7 -17l34 -34q6 -7 17 -7q10 0 17 7l68 68l67 -68q7 -7 17 -7t17 7l34 34
q7 6 7 17v0zM928 307q36 -61 36 -132.5t-35.5 -133t-96.5 -96.5q-61 -36 -134 -36q-72 0 -133 36q-28 17 -50 37h-326q-23 0 -39 16t-16 39v767q0 23 16 39t39 16h365q22 0 50 -11q27 -11 44 -28l178 -178q16 -16 27 -43q12 -28 12 -51v-166q38 -30 63 -75v0zM207 55h253
q-28 55 -28 119q0 10 2 27h-136q-8 0 -13 5t-5 14v36q0 8 5 13t13 5h153q7 17 17 34q13 23 28 39h-198q-8 0 -13 5.5t-5 13.5v36q0 8 5 13.5t13 5.5h299q47 19 101 19q49 0 94 -17v71h-238q-23 0 -39 16t-16 38v238h-292v-731zM572 567h215q-6 17 -12 23l-179 179
q-6 6 -24 12v-214z" />
    <glyph glyph-name="shanchu4" unicode="&#xe61f;" 
d="M689 207q-13 -13 -32 -13t-32 13l-290 290q-13 13 -13 32t13 32v0q13 13 32 13t32 -13l290 -290q13 -13 13 -32t-13 -32v0zM689 561q13 -13 13 -32t-13 -32l-290 -290q-13 -13 -32 -13t-32 13v0q-13 13 -13 32t13 32l290 290q13 13 32 13t32 -13v0z" />
    <glyph glyph-name="shanchu5" unicode="&#xe620;" 
d="M830 639l-63 63l-255 -256l-255 256l-63 -63l256 -255l-256 -255l63 -63l255 256l255 -256l63 63l-256 255z" />
    <glyph glyph-name="shanchu6" unicode="&#xe621;" 
d="M555 384l305 305q9 8 0 17l-26 26q-9 9 -17 0l-305 -305l-305 305q-8 9 -17 0l-26 -26q-9 -9 0 -17l305 -305l-305 -305q-9 -8 0 -17l26 -26q9 -9 17 0l305 305l305 -305q8 -9 17 0l26 26q9 9 0 17z" />
    <glyph glyph-name="cha" unicode="&#xe672;" 
d="M120 677l68 67l697 -697l-68 -67l-697 697v0zM817 744l68 -67l-697 -697l-68 67l697 697v0zM817 744z" />
    <glyph glyph-name="denglu1" unicode="&#xe65d;" horiz-adv-x="1332" 
d="M785.5 896q-107.5 0 -183.5 -76.5t-76 -184.5t76 -184t183.5 -76t183.5 76t76 184t-76 184.5t-183.5 76.5zM785.5 430q-84.5 0 -144.5 60t-60 145t60 145t144.5 60t144 -60t59.5 -145t-59.5 -145t-144 -60zM1263 311h-265q-28 0 -48 -20t-20 -48v-161q0 -28 20 -48
t48 -20h265q28 0 48 20t20 48v161q0 28 -20 48t-48 20zM1289 107q0 -23 -15.5 -38.5t-38.5 -15.5h-209q-23 0 -38.5 15.5t-15.5 38.5v111q0 23 15.5 38.5t38.5 15.5h209q23 0 38.5 -15.5t15.5 -38.5v-111zM1193 -15q7 -38 7 -76v-0.5v-0.5q0 -16 8.5 -26t23.5 -10t23 10
t8 26q0 39 -6 77h-64zM1130.5 382q29.5 0 50.5 -20.5t21 -50.5h36q0 45 -31.5 76.5t-76 31.5t-76.5 -31.5t-32 -76.5h37q0 30 21 50.5t50.5 20.5zM1038 335h8q-1 1 -3.5 2.5t-3.5 1.5q0 -1 -1 -4zM1007 357q-101 53 -222 53q-104 0 -194 -40.5t-151.5 -109t-97 -160
t-35.5 -192.5q0 -16 8 -26t22 -10q15 0 24 10t9 26v0q0 118 55.5 219t151 160t208.5 59q72 0 139 -26q19 15 43 15h33q2 12 7 22z" />
    <glyph glyph-name="dazhongicon02" unicode="&#xe643;" 
d="M512 659h5q98 0 183.5 -33.5t140 -92t63.5 -129.5l55 7q-11 85 -73 154.5t-160 109.5t-209 40h-5q-115 -1 -213 -41t-158.5 -109t-70.5 -154l55 -6q8 69 62 127.5t140 92.5t185 34zM904 355q-8 -70 -62 -128t-140 -92t-185 -35h-5q-98 0 -183.5 33.5t-140 92.5t-63.5 129
l-55 -7q11 -84 73 -154t160 -110t209 -40h5q115 1 213 41t158.5 109.5t70.5 154.5zM292 378q1 -92 66 -157t156 -65h2q92 1 157 67t64 159q-1 92 -66.5 157t-157.5 65q-92 -1 -157 -67.5t-64 -158.5zM681 381q1 -69 -47.5 -118.5t-117.5 -50.5l-2 -28v28q-68 0 -117 49
t-49 117q-1 70 48 119.5t119 50.5q68 0 117 -49t49 -118zM514 436v56q-46 -1 -78.5 -34t-32.5 -79h56q0 23 16 40t39 17z" />
    <glyph glyph-name="a526" unicode="&#xe65e;" 
d="M770 137q0 -107 -76 -183.5t-184 -76.5t-184 76.5t-76 183.5q0 97 62.5 169.5t156.5 87.5v468q0 12 8 20t19.5 8t19.5 -8t8 -20v-55h136q12 0 20 -8t8 -19t-8 -19t-20 -8h-136v-82h136q12 0 20 -8t8 -19.5t-8 -19.5t-20 -8h-136v-220q103 -5 174.5 -80t71.5 -179z
M305 137q0 -85 60 -145t145 -60t145 60t60 145t-60 145t-145 60t-145 -60t-60 -145z" />
    <glyph glyph-name="shanchu-copy" unicode="&#xe622;" 
d="M934 653l-153 153l-269 -269l-269 269l-153 -153l269 -269l-269 -269l153 -153l269 269l269 -269l153 153l-269 269z" />
    <glyph glyph-name="wenhao" unicode="&#xe697;" horiz-adv-x="1026" 
d="M513.5 896q-104.5 0 -199 -40.5t-163 -109t-109 -163.5t-40.5 -199t40.5 -199t109 -163.5t163 -109t199 -40.5t199 40.5t163.5 109t109.5 163.5t40.5 199t-40.5 199t-109.5 163.5t-163.5 109t-199 40.5zM510 28q-23 0 -39 16.5t-16 39.5t16 39.5t39 16.5t39.5 -16.5
t16.5 -39.5t-16.5 -39.5t-39.5 -16.5zM711 477.5q-15 -31.5 -64 -78.5q-49 -48 -65.5 -68t-24.5 -47.5t-7 -74.5h-86q0 55 8.5 87.5t26.5 57t63.5 71.5t59 68.5t13.5 64t-30.5 75t-87.5 32.5q-130 0 -130 -154h-86q2 70 16.5 107t47 65.5t72 42.5t82.5 14q89 0 148 -52.5
t59 -139.5q0 -39 -15 -70.5z" />
    <glyph glyph-name="sina" unicode="&#xe66b;" 
d="M961 155q0 -28 -14 -54l-284 318l280 245q18 -27 18 -59v-450zM511 361l391 342q-26 14 -53 14h-675q-27 0 -53 -14zM620 382l-90 -79q-8 -7 -18.5 -7t-18.5 7l-90 79l-288 -322q28 -17 59 -17h675q31 0 59 17zM79 664q-17 -27 -17 -59v-450q0 -28 14 -54l284 318z
M79 664z" />
    <glyph glyph-name="tongguo3" unicode="&#xe623;" 
d="M512 870q-99 0 -189 -38.5t-155 -103.5t-103.5 -155t-38.5 -189t38.5 -189t103.5 -155t155 -103.5t189 -38.5t189 38.5t155 103.5t103.5 155t38.5 189t-38.5 189t-103.5 155t-155 103.5t-189 38.5zM512 -51q-88 0 -169 34.5t-139 92.5t-92.5 139t-34.5 169t34.5 169
t92.5 139t139 92.5t169 34.5t169 -34.5t139 -92.5t92.5 -139t34.5 -169t-34.5 -169t-92.5 -139t-139 -92.5t-169 -34.5zM358 486zM307 486.5q0 21.5 15 36.5t36.5 15t36.5 -15t15 -36.5t-15 -36.5t-36.5 -15t-36.5 15t-15 36.5zM666 486zM614 486.5q0 21.5 15 36.5t36.5 15
t36.5 -15t15 -36.5t-15 -36.5t-36.5 -15t-36.5 15t-15 36.5zM749.5 336q-9.5 5 -19.5 2t-15 -12q-30 -56 -84.5 -88.5t-118.5 -32.5t-118.5 32.5t-84.5 88.5q-5 9 -15 12t-19.5 -2t-12.5 -15t2 -19q37 -69 103.5 -108.5t144.5 -39.5t144.5 39.5t103.5 108.5q5 9 2 19
t-12.5 15z" />
    <glyph glyph-name="mima2" unicode="&#xe66c;" 
d="M847 -128h-675q-44 0 -75 29t-31 71v424q0 41 30.5 70.5t75.5 29.5h26v98q0 128 90.5 215t220.5 87t221 -87t91 -215v-99h26q44 0 75 -29t31 -71v-424q0 -41 -31 -70t-75 -29zM465 187v-111q0 -18 13 -30t31.5 -12t31.5 12t13 30v111q20 11 32.5 30.5t12.5 42.5
q0 35 -26.5 59.5t-63 24.5t-63 -24.5t-26.5 -59.5q0 -23 12.5 -42.5t32.5 -30.5zM732 598q0 87 -65 148.5t-157.5 61.5t-157.5 -61.5t-65 -148.5v-102h445v102z" />
    <glyph glyph-name="zhuce2" unicode="&#xe6c9;" 
d="M793 -89q-48 0 -90.5 18t-74 50t-50 74.5t-18.5 90t18.5 90t50 73.5t74 49.5t90 18.5t90 -18.5t74 -49.5t49.5 -73.5t18 -90t-18 -90t-49.5 -74.5t-74 -50t-89.5 -18v0zM907 181h-84v78q0 16 -10 27.5t-26 11.5t-25 -11.5t-9 -27.5v-78h-74q-15 0 -26.5 -11.5
t-11.5 -27.5t11.5 -23.5t26.5 -7.5h74v-81q0 -16 9 -27t25 -11t26 11t10 27v81h84v-3q16 0 27.5 9t11.5 25t-11.5 27.5t-27.5 11.5v0zM627 463q-4 -18 -9 -33q-4 -12 -11 -25t-15 -20q-10 -8 -14 -17t-7 -18.5t-6 -20t-11 -20.5q-26 -34 -39 -66t-18.5 -61t-3 -58t9.5 -56
q4 -21 13 -43t26.5 -45t45 -45.5t68.5 -42.5q-28 -6 -64 -10q-30 -4 -75 -7q-45 -2 -103 -2q-29 0 -68 2t-80.5 5.5t-82 8t-73.5 9.5t-56.5 11t-29.5 10q-10 9 -15.5 50.5t3.5 108.5q6 37 30 57t57 31t68.5 21t63.5 27q21 13 32.5 25t16 24.5t4.5 26t-1 29.5
q-2 24 -16.5 37.5t-30.5 27.5q-9 7 -15.5 20.5t-11.5 25.5q-6 15 -9 33q-8 2 -15 7q-5 4 -12 13.5t-13 27.5q-5 17 -3.5 31.5t6.5 24.5q4 13 12 22q0 38 5 77q4 33 13.5 70.5t31.5 66.5q20 28 43.5 46.5t48.5 28.5t50 14t47 4q30 0 57 -7t50.5 -18t41.5 -25.5t29 -28.5
q26 -33 38 -73t18 -75q5 -40 4 -81q7 -6 12 -14q4 -7 6.5 -18t-0.5 -28q-2 -22 -8.5 -34.5t-14.5 -19.5q-9 -8 -20 -11v0z" />
    <glyph glyph-name="shenhetongguo2" unicode="&#xe624;" 
d="M961 579q-35 84 -99.5 148t-147.5 99q-86 37 -180.5 37t-180.5 -37q-84 -35 -148 -99t-99 -148q-36 -86 -36 -180.5t36 -180.5q35 -83 99 -147t148 -100q86 -36 180.5 -36t180.5 36q83 36 147.5 100t99.5 147q36 86 36 180.5t-36 180.5zM929 398.5q0 -80.5 -31 -153.5
q-30 -71 -84.5 -126t-125.5 -85q-74 -31 -154.5 -31t-154.5 31q-71 30 -125.5 85t-84.5 126q-31 73 -31 153.5t31 154.5q30 71 84.5 126t125.5 85q74 31 154.5 31t154.5 -31q71 -30 125.5 -85t84.5 -126q31 -74 31 -154.5zM745 586q-13 0 -21 -8l-182 -178l-66 -65l-125 125
q-8 8 -21 8t-24 -10q-9 -10 -9.5 -23t8.5 -22l146 -146v0q1 -1 1 -2l2 -2q9 -8 21 -8h1h1q12 0 20 8l2 2l2 2l87 86l182 178q9 9 8.5 22t-9.5 23q-10 10 -24 10z" />
    <glyph glyph-name="zan2" unicode="&#xeb8e;" 
d="M962 296q18 -23 14 -51q-5 -29 -42 -55q-12 -8 -15 -22.5t5 -27.5q19 -31 11 -62q-7 -29 -43 -51q-20 -12 -17 -34q2 -38 -27 -70q-48 -51 -164 -51h-2q-70 0 -132.5 8.5t-91.5 16.5t-75 23q-81 26 -127 28v481q20 7 37 17q53 32 100 82q89 95 118 226q3 14 7 39
q7 48 16 69t31 28q54 17 90 -10q47 -35 48 -141q-6 -72 -26 -121q-14 -33 5.5 -62.5t53.5 -29.5h145q29 0 53 -14q16 -9 30.5 -27t19.5 -41q12 -48 -24 -105q-15 -22 2 -43zM37 -42v449q0 10 10 10h136v-469h-136q-10 0 -10 10z" />
    <glyph glyph-name="cguanliyuan" unicode="&#xe601;" 
d="M512 -128h512q0 40 -5 76.5t-19.5 80t-37.5 79.5t-62.5 71t-92 59t-128 38.5t-167.5 14.5t-168 -15.5t-128 -40.5t-91.5 -60.5t-62.5 -72.5t-37.5 -80t-19.5 -78t-5 -72h512zM512 291q74 0 139.5 49.5t102.5 124.5t37 152q0 60 -15.5 109t-47.5 88t-87 60.5t-129 21.5
t-129 -21.5t-87 -60.5t-47.5 -88t-15.5 -109q0 -77 37 -152t102.5 -124.5t139.5 -49.5z" />
    <glyph glyph-name="tongguo4" unicode="&#xe625;" 
d="M62 396q5 18 5 19q12 31 45 40t61 -12q4 -3 13 -12q44 -43 216 -209l4 -4l2 3q191 209 372 407q56 62 65 71q18 19 45 20t47 -17q18 -16 23 -37.5t-4 -42.5q-4 -9 -11 -16q-140 -156 -448 -497q-30 -34 -35 -39q-20 -20 -47.5 -21t-47.5 18q-13 12 -110 106
q-169 162 -170 164q-21 19 -24 44l-1 3v12z" />
    <glyph glyph-name="hqunpassed" unicode="&#xe626;" 
d="M724 124l-82 83l67 67l77 -77v403h-134q-22 0 -37.5 15.5t-15.5 38.5v135h-481v-810h595l-66 67zM412 175h-181q-11 0 -18.5 8t-7.5 19t7.5 19t18.5 8h181q11 0 18.5 -8t7.5 -19t-7.5 -19t-18.5 -8zM412 296h-181q-11 0 -18.5 8t-7.5 19t7.5 19t18.5 8h181q11 0 18.5 -8
t7.5 -19t-7.5 -19t-18.5 -8zM492 418h-261q-11 0 -18.5 8t-7.5 19t7.5 19t18.5 8h261q11 0 19 -8t8 -19t-8 -19t-19 -8zM666 627h120l-160 155v-121q0 -17 11 -25.5t29 -8.5zM906 202l-38 39l-77 -78l-82 82l-38 -38l81 -83l-77 -78l39 -39l77 78l72 -73l39 39l-73 73z
M786 -21v72l-71 -72h71z" />
    <glyph glyph-name="denglumima1" unicode="&#xe71e;" 
d="M912 834h-800q-20 0 -35 -15t-15 -35v-800q0 -20 15 -35t35 -15h800q20 0 35 15t15 35v800q0 20 -15 35t-35 15zM509.5 684q79.5 0 138 -63t58.5 -142h-52q0 64 -41.5 107.5t-102.5 43.5t-103 -43.5t-42 -107.5h-52q0 79 58.5 142t138 63zM737 138q0 -22 -15.5 -38
t-36.5 -16h-346q-21 0 -36.5 16t-15.5 38v246q0 22 14.5 36t35.5 14h350q21 0 35.5 -14t14.5 -36v-246zM514 334h-4q-9 0 -16 -11t-7 -26v-101q0 -15 7 -26t16 -11h4q9 0 16 11t7 26v101q0 15 -7 26t-16 11z" />
    <glyph glyph-name="pinglun1" unicode="&#xe64a;" 
d="M512 56q-40 0 -82 7l-191 -116v193q-77 54 -120.5 131.5t-43.5 166.5q0 104 58.5 192t159 139.5t219.5 51.5t219.5 -51.5t159 -139.5t58.5 -192t-58.5 -192t-159 -139t-219.5 -51v0zM512 766q-104 0 -192 -44t-139.5 -119.5t-51.5 -164.5q0 -82 44 -152.5t120 -115.5
l-2 -127l129 77q46 -9 92 -9q104 0 192 43.5t139 119t51 164.5t-51 164.5t-139 119.5t-192 44v0zM731 384q-23 0 -39 16t-16 38.5t16 38.5t38.5 16t38.5 -16t16 -38.5t-16 -38.5t-38 -16v0zM512 384q-23 0 -39 16t-16 38.5t16 38.5t39 16t39 -16t16 -38.5t-16 -38.5t-39 -16
v0zM293 384q-22 0 -38 16t-16 38.5t16 38.5t38.5 16t38.5 -16t16 -38.5t-16 -38.5t-39 -16v0zM293 384z" />
    <glyph glyph-name="wocanyude" unicode="&#xe64f;" horiz-adv-x="1229" 
d="M1165 -75v0q0 5 -2 10q-21 161 -139 271q-62 57 -139 87q67 42 107 112.5t40 153.5q0 128 -89.5 219t-216 91t-216 -91t-89.5 -219q0 -83 40 -153.5t108 -112.5q-78 -30 -139 -87q-117 -109 -139 -268q-2 -6 -2 -12v-4v-1q0 -15 11 -26t26 -11t26 10.5t11 26.5v4v1
q0 2 -1 5q19 132 117 221.5t229 96.5q10 -1 18.5 -1t19.5 1q131 -7 228.5 -97t116.5 -222h1q-1 -3 -1 -4l1 -5v0q0 -16 10.5 -26.5t25.5 -10.5t26 10.5t11 25.5v5v0v0zM493 558q0 99 68.5 168.5t165 69.5t165 -69.5t68.5 -168.5q0 -92 -61.5 -159.5t-150.5 -76.5
q-11 1 -21.5 1t-21.5 -1q-89 8 -150.5 76t-61.5 160v0v0zM471 894h-3q-15 1 -30 1q-126 0 -215.5 -91t-89.5 -219q0 -83 40 -153.5t108 -111.5q-78 -30 -139 -87q-118 -109 -140 -268q-2 -6 -2 -12l1 -5v0q0 -16 10.5 -27t26 -11t26.5 11t11 26l-1 5v0v5q19 132 116.5 222
t228.5 97h2h1q2 -1 3 -1q16 0 26.5 11t10.5 26q0 23 -20 33q-6 4 -13 4h-4h-5h-3q-89 8 -151 76t-62 160v0q0 98 69 167.5t165 69.5l34 -2q14 1 24.5 11.5t10.5 25.5t-10.5 26t-25.5 11v0z" />
    <glyph glyph-name="pinglun2" unicode="&#xe64b;" 
d="M979 229l-1 -6l-1 -3l-1 -2v-1l-1 -1l-1 -2l-1 -2l-1 -3l-1 -2l-1 -2l-1 -1l-1 -1l-1 -1l-1 -1l-1 -1l-1 -2l-1 -1l-1 -3l-1 -1l-2 -1v-2h-2l-1 -1l-1 -2l-2 -1l-2 -1l-2 -1l-1 -1v-1l-1 -2l-1 -1l-3 -1l-3 -1l-3 -1h-2l-1 -1l-1 -2l-2 -1l-3 -1l-8 -1l-338 -1l-3 -1
l-1 -1l-1 -1l-1 -1l-1 -1l-1 -1l-1 -1v-1h-2v-1q-1 -5 -6.5 -8t-5.5 -7q-6 -2 -10 -7q-1 0 -4 -2t-3 -7l-5 -1l-4 -2l-1 -5l-9 -4q0 -3 -1 -3.5t-2.5 -1t-2.5 -1.5t-1 -3t-1 -2.5t-5 -0.5v-3h-2v-6l-3 -1h-4l-4 -6q-5 0 -10 -7q-1 -1 -4.5 -4t-4.5 -6q-4 -1 -5.5 -2t-2 -3
t-1.5 -3l-3.5 -1.5t-4.5 -6.5q-10 0 -18 -16q-4 0 -5.5 -0.5t-2.5 -2.5t-4 -4q-1 0 -4 -5q-1 -1 -3 -2t-2 -2q-2 -1 -6.5 -5t-8.5 -7.5t-6 -3.5v-3q-2 -1 -3.5 -3t-5.5 -3l-13 -15l1 -1q-9 0 -10 -6h-3q-7 0 -7 5v3q0 4 5 5l2 16l9 10q0 7 0.5 10t1.5 3.5t2 1.5t1 4h2v1
l1 16l6 3l2 16l6 5l1 8v6q7 2 7 12h2v8q0 2 4 5.5t4 12.5l7 12v1l1 1h1v5v6h3q0 2 2 4.5t2 4.5v3q0 3 -2.5 3t-7 -0.5t-5.5 -0.5h-318q-12 0 -16 9q-7 0 -10 4t-10 6q0 4 -4 8t-5 7h-5l-3 15l-6 1l-1 10v534q0 10 6 11l4 14l6 4q1 5 4.5 7.5t4.5 5.5h4h2l2 1l1 1l2 1l1 1v1
l1 1l1 1l1 1l3 1l4 1h3l2 1l2 1l1 1l2 1l1 1l6 1h817l5 -1l1 -1l1 -1l3 -1l2 -1l2 -1h3l4 -1l1 -1l2 -1l1 -1l1 -1l1 -1l1 -1l1 -1l2 -1l2 -1l1 -1l1 -1l1 -2h1l1 -1l1 -1l2 -1l1 -1v-1l1 -2l1 -2l1 -1l1 -2l1 -1l2 -1l1 -1l1 -2l1 -3l1 -2l1 -3l1 -1l1 -2v-1l1 -2l1 -2
l1 -7l1 -12v-506l-1 -12v0zM476 19h1l1 1l2 1l1 1l1 1v1l2 5q2 0 3.5 1t3.5 2q2 8 14 16h4v3h2q0 2 0.5 2.5t4.5 0.5v3h3q1 6 7 6q1 3 2.5 4t2.5 3h3q1 4 2 5t3.5 2t4.5 2l-1 8h8q1 3 5.5 6.5t4.5 8.5q7 0 9.5 4.5t7.5 4.5l1 6q10 2 12 10q3 0 9.5 1t11.5 1h22h46h91h91h45
q7 0 19 4q9 3 21 2l4 7h5h6t3.5 2t1.5 6q1 0 3 0.5t4 0.5h2l3 7h5q1 4 5.5 7.5t4.5 7.5q5 1 7.5 5.5t5.5 5.5v4q0 3 3.5 9t4.5 10l2 -3l1 2v577q-2 1 -3 0v1q-1 1 -2 5t-5 7l-4 11h-3l-2 9h-6l-1 7q-3 1 -6 5t-8 4l-1 5h-2v4q-5 0 -9.5 3.5t-10.5 3.5h-7q0 3 -0.5 4
t-2.5 1.5t-3 1.5l-23 1q-5 3 -13 3h-790l-30 -4h-6l-12 -7l-11 -2q-1 -5 -10 -8l-3 -6h-5l-3 -8h-2q-1 0 -5 -1q-1 -5 -4 -7t-3 -4q-1 -1 -2.5 -4t-2.5 -5.5l-1 -2.5h-3v-9q0 -5 -4 -6l-3 -4l-1 -55l-1 -465l3 -56l3 -2l2 -5l1 1v-6q0 -5 3.5 -8t3.5 -5l1 -3l11 -11l4 -7h8
v-3l3 -6q9 0 10 -7l12 -1l3 -5l25 -3q7 -5 9 -5h252q1 0 6 0.5t7.5 0t2.5 -3.5v-8q0 -3 -1 -6.5t-1 -4.5l-6 -2v-18h-4l-4 -2v-8q0 -8 -4 -12t-4 -6v-11q-10 -2 -10 -14v-4q-7 -2 -7 -20q-8 -2 -8 -19v-30q0 -1 1 -5l1 1l3 -4l7 -3q1 -6 3.5 -7t11.5 -1l5 -2v-3h10q5 0 7 4
l15 2l5 7q5 0 11 5.5t7 9.5l8 4v4q4 0 7 5t8 6q3 1 3.5 3t3.5 3q4 2 4 2.5t2 5.5q7 0 8 8h3q1 0 4 1l1 6q5 1 7 2.5t2 2.5t-0.5 2t1 2t5.5 1l-3 -4v0v0zM247 485zM174 485q0 30 21.5 51.5t51.5 21.5t51 -21.5t21 -51.5t-21 -51.5t-51 -21.5t-51.5 21.5t-21.5 51.5zM737 485z
M664 485q0 30 21.5 51.5t51.5 21.5t51.5 -21.5t21.5 -51.5t-21.5 -51.5t-51.5 -21.5t-51.5 21.5t-21.5 51.5zM488 485zM415 485q0 30 21.5 51.5t51.5 21.5t51 -21.5t21 -51.5t-21 -51.5t-51 -21.5t-51.5 21.5t-21.5 51.5z" />
    <glyph glyph-name="yanshoubutongguo" unicode="&#xe627;" 
d="M401 835q-37 0 -64 -27t-27 -65q0 -9 2 -18h-62q-18 0 -31 -13t-13 -31v-35q0 -18 13 -30.5t31 -12.5h354q18 0 30.5 12.5t12.5 30.5v35q0 18 -12.5 31t-30.5 13h-63q2 9 2 18q0 38 -26.5 65t-64.5 27h-51zM427 812q18 0 30.5 -13t12.5 -31q0 -16 -9.5 -28t-23.5 -15h-20
q-14 3 -23.5 15t-9.5 28q0 18 12.5 31t30.5 13zM158 725q-26 0 -45.5 -19.5t-19.5 -46.5v-657q0 -27 19.5 -46.5t45.5 -19.5h537q27 0 46 19.5t19 46.5v45l-45 44v-89q0 -9 -5.5 -14.5t-14.5 -5.5h-537q-8 0 -14 5.5t-6 14.5v657q0 8 6 14t14 6h26v12q0 21 16 34h-42z
M653 725q16 -13 16 -34v-12h26q9 0 14.5 -6t5.5 -14v-162l44 44l0.5 0.5l0.5 0.5v117q0 27 -19 46.5t-46 19.5v0v0h-1v0v0h-1h-1h-1v0h-1h-1h-1h-1h-1h-2h-1h-1h-1h-2h-1h-2h-1h-1h-2h-1h-2h-2h-1h-2h-2h-9zM483 559q-15 0 -25 -10l-51 -51q-11 -11 -11 -25.5t11 -25.5
l156 -156l-156 -156q-11 -10 -11 -25t11 -25l51 -51q10 -11 25 -11t25 11l156 156l156 -156q11 -11 25.5 -11t25.5 11l51 51q10 10 10 25t-10 25l-156 156l156 156q10 11 10 25.5t-10 25.5l-51 51q-11 10 -25.5 10t-25.5 -10l-156 -156l-156 156q-10 10 -25 10z" />
    <glyph glyph-name="999999yanzhengma" unicode="&#xe67a;" 
d="M289 607h-223v222h223v-222zM957 607h-446v222h446v-222zM734 161h223v-222h-223v222zM66 161h445v-222h-445v222zM957 273h-891v222h891v-222z" />
    <glyph glyph-name="email3" unicode="&#xe723;" 
d="M512 896q-104 0 -199 -40.5t-163.5 -109t-109 -163.5t-40.5 -199t40.5 -199t109 -163.5t163.5 -109t199 -40.5t199 40.5t163.5 109t109 163.5t40.5 199t-40.5 199t-109 163.5t-163.5 109t-199 40.5zM247 533q2 17 16 29t33 12v0h432q19 0 33 -12t16 -29v-5l-265 -158
l-266 158q0 3 1 5zM778 240q0 -19 -15 -32.5t-35 -13.5h-432q-20 0 -35 13.5t-15 32.5v247l266 -157l266 157v-247z" />
    <glyph glyph-name="jianpan" unicode="&#xe67b;" 
d="M870 487v101h-101v-101h101zM870 334v101h-101v-101h101zM716 487v101h-101v-101h101zM716 334v101h-101v-101h101zM716 127v103h-408v-103h408zM255 487v101h-101v-101h101zM255 334v101h-101v-101h101zM308 434v-101h101v101h-101zM308 588v-101h101v101h-101zM462 434
v-101h100v101h-100zM462 588v-101h100v101h-100zM923 742q41 0 71 -30t30 -71v-514q0 -41 -30 -71t-71 -30h-822q-41 0 -71 30t-30 71v514q0 41 30 71t71 30h822z" />
    <glyph glyph-name="cha1" unicode="&#xe673;" 
d="M887 -12q-22 -21 -51.5 -21t-50.5 21l-647 646q-21 21 -21 51t21 51t51 21t51 -21l647 -646q21 -21 21 -51t-21 -51v0zM886 634l-646 -646q-22 -21 -51.5 -21t-51 21t-21.5 51t22 51l646 646q21 22 51 22t51 -21.5t21 -51t-21 -51.5v0z" />
    <glyph glyph-name="money" unicode="&#xe658;" 
d="M876 877h-134l-151 -277q-60 -113 -74 -150h-2q-40 90 -225 427h-141l263 -452h-216v-100h253v-138h-253v-101h253v-201h126v201h244v101h-244v138h244v100h-210z" />
    <glyph glyph-name="pinglun3" unicode="&#xe64c;" horiz-adv-x="1157" 
d="M1020 54l-4 37q42 4 72 36.5t30 74.5v562q0 41 -29 70t-70 29h-887q-41 0 -70 -29t-29 -70v-583q0 -41 29 -70t70 -29h426q62 0 133.5 -30.5t114.5 -74.5l46 -46q23 -24 29.5 -21t6.5 35h36q-3 -14 -3 -28v28q0 -16 -3 -28h-30q0 67 47 119t114 58l3 -29q-16 -6 -33 -7
l33 3q-16 -2 -32 -7v0zM924 -55h-3h-33v-28h30q-7 -37 -32 -39.5t-58 30.5l-45 46q-38 39 -104 67t-121 28h-426q-55 0 -93.5 38.5t-38.5 93.5v583q0 54 39 93t93 39h887q54 0 93 -39t39 -93v-562q0 -45 -28 -83.5t-71 -53.5l-3 29l-33 -3l4 -37q-36 -13 -62 -42t-34 -67v0z
M198 533h132v-132h-132v132zM529 533h132v-132h-132v132zM859 533h132v-132h-132v132z" />
    <glyph glyph-name="wocanyude1" unicode="&#xe674;" horiz-adv-x="1229" 
d="M1165 -75v0q0 5 -2 10q-21 161 -139 271q-62 57 -139 87q67 42 107 112.5t40 153.5q0 128 -89.5 219t-216 91t-216 -91t-89.5 -219q0 -83 40 -153.5t108 -112.5q-78 -30 -139 -87q-117 -109 -139 -268q-2 -6 -2 -12v-4v-1q0 -15 11 -26t26 -11t26 10.5t11 26.5v4v1
q0 2 -1 5q19 132 117 221.5t229 96.5q10 -1 18.5 -1t19.5 1q131 -7 228.5 -97t116.5 -222h1q-1 -3 -1 -4l1 -5v0q0 -16 10.5 -26.5t25.5 -10.5t26 10.5t11 25.5v5v0v0zM493 558q0 99 68.5 168.5t165 69.5t165 -69.5t68.5 -168.5q0 -92 -61.5 -159.5t-150.5 -76.5
q-11 1 -21.5 1t-21.5 -1q-89 8 -150.5 76t-61.5 160v0v0zM471 894h-3q-15 1 -30 1q-126 0 -215.5 -91t-89.5 -219q0 -83 40 -153.5t108 -111.5q-78 -30 -139 -87q-118 -109 -140 -268q-2 -6 -2 -12l1 -5v0q0 -16 10.5 -27t26 -11t26.5 11t11 26l-1 5v0v5q19 132 116.5 222
t228.5 97h2h1q2 -1 3 -1q16 0 26.5 11t10.5 26q0 23 -20 33q-6 4 -13 4h-4h-5h-3q-89 8 -151 76t-62 160v0q0 98 69 167.5t165 69.5l34 -2q14 1 24.5 11.5t10.5 25.5t-10.5 26t-25.5 11v0z" />
    <glyph glyph-name="zeng1" unicode="&#xe652;" 
d="M960 22q0 -36 -25.5 -61.5t-61.5 -25.5h-725q-37 0 -62 25.5t-25 61.5v725q0 36 25 61.5t62 25.5h725q36 0 61.5 -25.5t25.5 -61.5v-725zM362 560h-34v-198q0 -89 -22 -137.5t-94 -112.5l30 -30q44 42 68 74t36 66q70 -83 99 -120l28 29q-32 39 -114 131l-4 -4q7 38 7 95
v207zM246 256h34v345h128v-343h36v384h-198v-386zM754 672l-33 17q-23 -43 -54 -87h-80l27 16q-16 29 -47 73l-32 -19q17 -24 44 -70h-92v-209h319v209h-95q21 31 43 70zM512 79h37v35h193v-35h36v260h-266v-260zM521 568h109v-142h-109v142zM584 447l30 17q-25 46 -48 83
l-28 -14q23 -40 46 -86zM549 304h193v-60h-193v60zM549 209h193v-59h-193v59zM772 568v-142h-109v142h109zM754 533l-28 15q-21 -41 -50 -84l28 -17q25 41 50 86z" />
    <glyph glyph-name="tongguo5" unicode="&#xe628;" horiz-adv-x="1063" 
d="M712 -78q-67 62 -89.5 97.5t-3.5 50.5q17 14 33 7t54 -45q48 -48 63 -58l14 -9l15 17q15 18 90 118q78 103 102.5 130.5t40.5 27.5q10 0 15 -3t9 -12q17 -32 0 -47q-8 -6 -43 -57.5t-81.5 -105t-77.5 -98.5q-24 -36 -37 -47.5t-32 -15.5q-10 -1 -22 7t-50 43zM72 -89
q-19 8 -35.5 29.5t-22.5 46.5q-3 13 -4 420v96q-1 250 3.5 295t32.5 62q7 4 11 7l28 19l411 1q322 1 380.5 -1.5t82.5 -17.5q11 -7 23 -34q8 -19 9.5 -52.5t0.5 -206.5q-1 -232 -6 -239q-6 -7 -21 -6t-26 10l-14 11v216q0 217 -5 230q-6 17 -62 20.5t-346 3.5
q-361 -1 -390 -4q-21 -2 -26 -5t-10 -17q-6 -18 -6 -393.5t4 -394.5q4 -18 16 -23q23 -9 208 -9h1h1h1h1h1h1h1h1h1h1h1v0h1h1h1h1l1 -1h1h1h1h1h1h1h1h1h1h1h1h1h1h1h1h1h1h1h1h1h1h1h2q227 0 238.5 -6.5t15 -20t-3.5 -26.5l-8 -13l-253 -1q-252 -1 -265 4zM299 166
q-16 32 2 48q6 6 42 7t178 1h210l8 -15q8 -16 6 -30q-2 -17 -39 -21t-201 -5h-198zM466 364q-156 2 -162 7q-9 8 -10.5 25t6.5 26q6 7 36.5 8.5t183.5 1.5h211l7 -12q8 -11 8 -27q0 -23 -43 -27t-237 -2zM299 590q-14 28 2 43q6 6 42.5 7t178.5 1h213l5 -13q6 -13 6 -26
q0 -19 -35 -23t-202 -4h-202z" />
    <glyph glyph-name="chakanwenjian" unicode="&#xe62d;" 
d="M988 -89q-7 -7 -16 -7t-16 7l-116 116q17 14 32 31l116 -116q6 -6 6 -15.5t-6 -15.5v0zM652 2q-102 0 -174 71.5t-72 173.5t72 173.5t173.5 71.5t173.5 -71.5t72 -173.5t-72 -173.5t-173 -71.5v0zM652 448q-83 0 -142 -59t-59 -142t59 -142t142 -59t142 59t59 142
t-59 142t-142 59v0zM495 247q0 11 2 22h177v-44h-177q-2 11 -2 22v0zM652 403q10 0 22 -2v-42h-132q46 44 110 44v0zM183 225v44h180q-1 -15 -1 -22t1 -22h-180v0zM384 359h-201v44h224q-14 -22 -23 -44v0zM183 671h223v-45h-223v45v0zM406 492h-223v45h223v-45v0zM785 537
h-178q-37 0 -63 26t-26 63v201h-402q-18 0 -31.5 -13t-13.5 -31v-670q0 -18 13.5 -31t31.5 -13h307q20 -26 43 -45h-350q-37 0 -63 26t-26 63v670q0 37 26 63t63 26h335h12h23h62l276 -297l-2 -8l8 -8v-10v-56v-18q-21 17 -45 29v33v0zM562 790v-164q0 -18 13.5 -31
t31.5 -13h151l-196 208v0z" />
    <glyph glyph-name="tongguo6" unicode="&#xe629;" horiz-adv-x="1408" 
d="M1092 848l-580 -580l-232 232q-48 48 -116 48t-116 -48t-48 -116t48 -116l348 -348q48 -48 116 -48t116 48l696 696q48 48 48 116t-48 116t-116 48t-116 -48v0z" />
    <glyph glyph-name="log" unicode="&#xe94d;" 
d="M388 -104l-242 303q0 2 -0.5 6t0.5 14.5t3.5 20t9.5 18.5t17 13.5t27.5 3.5t39.5 -11q28 -13 49.5 -35t28.5 -36t7 -17l2 461q2 2 4.5 5t10.5 11.5t16 14t19.5 9.5t22.5 2.5t24.5 -12t24.5 -30.5l1 -292q3 4 8 10t22 17t34 14t41.5 -8t47.5 -39q3 4 7.5 10.5t20 18.5
t32 15.5t41 -8t48.5 -41.5q2 2 4 6t10 14t16 17t19.5 11t23 1t25.5 -18t26 -42v-366q0 -3 -2 -8.5t-15.5 -21.5t-36.5 -31h-437zM390 871q-101 0 -172.5 -72t-71.5 -173q0 -66 33.5 -122t89.5 -89v76q-62 55 -62 136q0 76 53.5 129.5t129 53.5t129 -53.5t53.5 -129.5
q0 -79 -60 -134v-78q56 33 89.5 89t33.5 122q0 101 -72 173t-173 72v0zM390 871z" />
    <glyph glyph-name="jiacu" unicode="&#xe632;" 
d="M658 398q-2 1 -11 7l1 1q1 1 3 2q101 72 79 193q-11 61 -60.5 103.5t-111.5 43.5h-40v1h-208v-32v-16v-308v-1.5v-0.5v-0.5v-0.5v-300v0v-1v-33v0v-3h208v0h19h21q15 0 28 2q58 9 100.5 49t55.5 100q11 55 -12 109t-72 85zM518 701h10v-1q2 0 8.5 0.5t9.5 -0.5
q52 0 90.5 -32t47.5 -83q10 -55 -25.5 -103t-90.5 -55h-8h-146h-1.5h-1.5h-53v91v0v22.5v22.5v113v1v0v24h160v0zM578 103q-10 -2 -17 -2h-6.5h-7.5v0h-189v28v0v111v111v0v0v27h180v0q1 0 4 -0.5t4 0.5q34 0 52 -5q46 -14 74 -54.5t24 -88.5q-3 -49 -36.5 -84.5
t-81.5 -42.5z" />
    <glyph glyph-name="chachakan" unicode="&#xe62a;" 
d="M961 -54q-8 -8 -20 -8t-20 8l-230 226q-103 -82 -236 -82q-101 0 -187 49.5t-136 134t-50 184.5t50 184.5t136 133.5t187.5 49t187.5 -49t136 -133.5t50 -184.5q0 -141 -97 -247l229 -225q9 -8 9 -20t-9 -20v0zM455 769q-130 0 -223 -91t-93 -220t93 -220t223.5 -91
t223.5 91t93 220t-93 220t-224 91v0zM455 769z" />
    <glyph glyph-name="chakan2" unicode="&#xe62b;" 
d="M935 -39q-25 -24 -59.5 -24t-59.5 24l-147 149q-97 -62 -210 -62q-107 0 -196.5 52.5t-142 143t-52.5 197t52.5 197t142 143.5t196 53t196.5 -53t142 -143.5t52 -196.5q0 -114 -62 -212l148 -148q24 -25 24 -60t-24 -60v0zM459 721q-116 0 -197.5 -82t-81.5 -198.5
t81.5 -198.5t197 -82t197 82t81.5 198.5t-81.5 198.5t-196.5 82v0zM459 721z" />
    <glyph glyph-name="icon42" unicode="&#xe6ec;" 
d="M390 0l-390 384l147 147l243 -243l487 480l147 -147z" />
    <glyph glyph-name="zan3" unicode="&#xe640;" horiz-adv-x="1026" 
d="M1020 412q-3 44 -42.5 72t-102.5 28h-229q26 70 26 151q0 110 -43 175q-36 58 -89 58q-85 0 -85 -107q0 -63 -7.5 -100t-22.5 -70q-14 -28 -67 -67.5t-106 -39.5h-152q-45 0 -73 -33.5t-27 -85.5v0v0l41 -416q7 -103 100 -103h55h30q21 0 49 24q3 1 7.5 4t6.5 4.5
t5.5 2.5t6.5 1q2 0 8 -2.5t16.5 -7.5t20.5 -9q37 -17 94 -17h317q79 0 118.5 28t39.5 79q0 26 -15 47q36 9 58.5 29.5t22.5 53.5q0 13 -5.5 30t-13.5 23q17 4 39 29t23 52v7q-3 51 -36 72q12 7 23.5 31t12.5 50v7h-4v0v0zM301 469v-507q-7 -2 -17.5 -8t-18 -11l-7.5 -5v24
v507q30 3 43 7v-7v0z" />
    <glyph glyph-name="zan4" unicode="&#xe65b;" 
d="M1020 489v0q4 26 4 40q0 112 -78.5 190.5t-189.5 78.5q-80 0 -146 -43.5t-98 -113.5q-32 70 -98 113.5t-146 43.5q-111 0 -189.5 -79t-78.5 -190q0 -14 4 -40h-1q1 -8 3 -20.5t13.5 -51t28.5 -76t49.5 -88.5t73.5 -95.5t105.5 -90.5t140.5 -78q50 -19 95 -19v0v0v0v0
q20 0 43.5 5t37.5 9t14 5q67 28 124.5 67t97.5 78t73 83.5t52 81t34 74.5t20.5 59.5t9.5 41.5l0.5 2l0.5 2z" />
    <glyph glyph-name="icon" unicode="&#xe644;" 
d="M803 511q-2 106 -85 181q-86 77 -207 77t-207 -77q-83 -75 -85 -181h-1v-5v0v-242v0v-11h1q4 -103 85 -175q86 -77 207 -77t207 77q80 73 85 175v0v258v0v0zM756 260v-6q-4 -86 -71 -146q-73 -65 -174.5 -65t-173.5 65q-68 60 -72 146v6v4v241v6q2 88 72 151
q63 56 150 64v-310q0 -8 7 -14.5t17 -6.5t16.5 6.5t6.5 14.5v310q88 -8 150 -64q70 -63 72 -151v-5v-246v0zM756 260z" />
    <glyph glyph-name="zan5" unicode="&#xe63a;" 
d="M506.5 891q-103.5 0 -197.5 -40t-161.5 -108t-108 -162t-40.5 -197t40.5 -197t108 -162t161.5 -108t197.5 -40t197.5 40t162 108t108 162t40 197t-40 197t-108 162t-162 108t-197.5 40zM353 131h-191q1 283 1 318q0 15 7 27.5t14 16.5l7 5h164zM826 442q11 -6 15 -9
t8.5 -12.5t5.5 -26.5q0 -24 -29 -38q-8 -3 -6.5 -12.5t14.5 -14.5q11 -5 17 -17t6 -22q1 -28 -19 -42l-4 -2t-7 -4.5t-7 -7t-4 -8.5t4 -10q8 -10 11.5 -21t2 -22.5t-15.5 -21t-40 -13.5q-160 -22 -270 12l-118 30v286q16 18 41 47t72 91t58 91q11 26 18 52t10 37t7 14
q4 2 13 3t21.5 -2.5t24 -11t19.5 -25t9 -41.5q2 -39 -13.5 -78.5t-31.5 -60.5l-16 -20h196q2 0 4.5 -0.5t9 -4t12 -8.5t10 -16t4.5 -25q1 -12 -8 -23t-18 -17l-9 -5q-13 -13 3 -21z" />
    <glyph glyph-name="chakanrizhi" unicode="&#xe62e;" 
d="M924 -23l-33 -33q-10 -10 -24 -10t-23 10l-135 134q-50 -29 -110 -29q-88 0 -155 65t-69 155h-170v56h175q7 28 23 56h-198v57h242q0 -1 -0.5 -1.5l-0.5 -0.5q63 58 147 58q90 0 157.5 -67.5t67.5 -158.5q0 -62 -32 -114l134 -134q24 -24 4 -43zM592.5 426
q-62.5 0 -107 -44.5t-44.5 -107t48 -110.5t110.5 -48t107 44.5t44.5 107.5t-48 110.5t-110.5 47.5zM205 663h395v-56h-395v56zM600 537q-53 -15 -93 -43h-302v56h395v-13zM656 547v172h-507v-563h238q18 -63 60 -113h-298q-24 0 -40.5 16.5t-16.5 40.5v676q0 23 16.5 39.5
t40.5 16.5h507q23 0 39.5 -16.5t16.5 -39.5v-229q-2 1 -12 2t-16 1t-16 -1t-12 -2z" />
    <glyph glyph-name="xiazai" unicode="&#xe638;" horiz-adv-x="1026" 
d="M878 -92h-732q-61 0 -103.5 43t-42.5 103v183q0 15 10.5 26t26.5 11h73q15 0 26 -10.5t11 -26.5v-110q0 -30 21.5 -51.5t51.5 -21.5h585q30 0 51.5 21.5t21.5 51.5v110q0 15 10.5 26t26.5 11h73q15 0 26 -10.5t11 -26.5v-183q-1 -60 -44 -103t-103 -43v0zM215 626
q11 11 27 11t27 -11l171 -171v368q0 15 10.5 26t26.5 11h73q15 0 26 -10.5t11 -26.5v-368l169 171q11 11 27 11t27 -11l54 -54q11 -11 11 -27t-11 -27l-303 -302q-1 -1 -7.5 -4.5t-18.5 -7.5t-22 -4q-11 0 -23 3.5t-18.5 7.5t-7.5 5l-303 302q-11 11 -11 27t11 27l54 54v0z
" />
    <glyph glyph-name="cuti" unicode="&#xe633;" horiz-adv-x="1025" 
d="M817 287q9 -29 9 -60q0 -107 -71 -163t-210 -56h-282v752h267q59 0 107 -13.5t81 -37.5q34 -26 52 -61q19 -35 19 -80q0 -55 -27 -94.5t-82 -65.5q37 -9 64 -27q27 -17 45 -42q19 -23 28 -52v0v0zM742 220q0 37 -10 65q-10 27 -35 45q-24 17 -65 26t-103 9h-187v-289h203
q197 0 197 144v0zM710 564q0 31 -10 54t-32 39q-23 16 -59.5 23.5t-88.5 7.5h-176v-252h187q92 0 135.5 29.5t43.5 98.5v0v0z" />
    <glyph glyph-name="liulan1" unicode="&#xe645;" 
d="M922 513q-35 58 -99 102q-133 91 -318 91q-149 0 -269 -62q-58 -30 -100 -70q-43 -42 -65 -92q-5 -11 -1 -22.5t15.5 -16.5t22.5 -0.5t16 15.5q37 81 139 134q107 55 242 55q167 0 284 -81q54 -37 83 -84t29 -98t-29 -98t-83 -84q-117 -81 -284 -81q-68 0 -131 15
q-75 18 -135 54q-89 53 -118 129q-5 11 -16 16t-22.5 0.5t-16.5 -15.5t0 -23q37 -94 143 -158q67 -40 151 -60q70 -17 145 -17q185 0 318 91q64 44 99 102q38 61 38 129t-38 129zM505 219q43 0 81 21q37 21 59 57q25 40 25 87q0 48 -26 89q-23 36 -60 56t-79 20
q-69 0 -117.5 -48.5t-48.5 -116.5t48.5 -116.5t117.5 -48.5zM505 490q58 0 89 -49q17 -26 17 -57t-16 -56q-15 -24 -39 -37t-51 -13q-44 0 -75.5 31t-31.5 75t31.5 75t75.5 31z" />
    <glyph glyph-name="marker" unicode="&#xe6e3;" 
d="M795 427l-211 -448q-9 -19 -27 -30t-39 -11t-39.5 11t-26.5 30l-212 448q-19 40 -19 104q0 123 87 209.5t210 86.5t209.5 -86.5t86.5 -209.5q0 -64 -19 -104zM517.5 679q-61.5 0 -105 -43.5t-43.5 -105t43.5 -105t105 -43.5t105 43.5t43.5 105t-43.5 105t-105 43.5z" />
    <glyph glyph-name="liulanjilu" unicode="&#xe646;" 
d="M972 384q0 -94 -36.5 -179t-98 -146.5t-146.5 -98t-179 -36.5t-179 36.5t-147 98t-98.5 146.5t-36.5 179t36.5 179t98.5 147t147 98.5t179 36.5t179 -36.5t146.5 -98.5t98 -147t36.5 -179zM512 799q-113 0 -208.5 -55.5t-151 -151t-55.5 -208.5t55.5 -208.5t151 -151
t208.5 -55.5t208.5 55.5t151 151t55.5 208.5t-55.5 208.5t-151 151t-208.5 55.5zM309 223l33 -33l193 194v0v360h-46v-341z" />
    <glyph glyph-name="zhuce" unicode="&#xe677;" 
d="M752 240q-47 35 -101 57q31 19 56 45q95 95 95 229t-94.5 229t-229 95t-229 -95t-94.5 -229t94 -229q27 -26 58 -46v0h-1v0q-74 -30 -134 -83q-62 -57 -101 -131.5t-48 -157.5q-2 -14 7 -25t23 -13h4q12 0 22 8.5t11 21.5q17 147 128 246q111 100 261 100q129 0 233 -77
q11 -8 25 -6t22.5 13.5t6 25t-13.5 22.5v0zM298 390q-75 75 -75 181t74.5 181t180.5 75t181 -75t75 -181t-75 -181q-47 -48 -111 -65q-40 -11 -81 -10q-30 2 -58 10v0v0q-64 17 -111 65v0zM968 62h-87v87q0 14 -10 24t-24 10t-24 -10t-10 -24v-87h-88q-14 0 -24 -10t-10 -24
t10 -24t24 -10h88v-87q0 -14 10 -24t24 -10t24 10t10 24v87h87q14 0 24 10t10 24t-10 24t-24 10v0z" />
    <glyph glyph-name="jianpan1" unicode="&#xe752;" 
d="M844 681h-661q-34 0 -58.5 -24.5t-24.5 -58.5v-413q0 -34 24.5 -58.5t58.5 -24.5h661q34 0 58 24.5t24 58.5v413q0 34 -24 58.5t-58 24.5v0zM472 557h83v-83h-83v83zM472 433h83v-83h-83v83zM348 557h83v-83h-83v83zM348 433h83v-83h-83v83zM307 350h-83v83h83v-83z
M307 474h-83v83h83v-83zM803 185h-579v82h578v-82h1zM678 350h-82v83h82v-83zM678 474h-82v83h82v-83zM802 350h-82v83h82v-83zM802 474h-82v83h82v-83v0z" />
    <glyph glyph-name="liulanjilu1" unicode="&#xe661;" 
d="M972 384q0 -94 -36.5 -179t-98 -146.5t-146.5 -98t-179 -36.5t-179 36.5t-147 98t-98.5 146.5t-36.5 179t36.5 179t98.5 147t147 98.5t179 36.5t179 -36.5t146.5 -98.5t98 -147t36.5 -179zM512 799q-113 0 -208.5 -55.5t-151 -151t-55.5 -208.5t55.5 -208.5t151 -151
t208.5 -55.5t208.5 55.5t151 151t55.5 208.5t-55.5 208.5t-151 151t-208.5 55.5zM309 223l33 -33l193 194v0v360h-46v-341z" />
    <glyph glyph-name="qian-copy" unicode="&#xe653;" 
d="M512 896q-139 0 -257 -68.5t-186.5 -186.5t-68.5 -257t68.5 -257t186.5 -186.5t257 -68.5t257 68.5t186.5 186.5t68.5 257t-68.5 257t-186.5 186.5t-257 68.5v0zM762 403v-100h-200v-48h200v-100h-200v-102h-100v102h-200v100h200v48h-200v100h188l-208 208l70 71
l200 -200l200 200l70 -71l-208 -208h188zM762 403z" />
    <glyph glyph-name="i-people" unicode="&#xe68e;" 
d="M674 -30h-519q-50 0 -85.5 36t-35.5 86v22q0 92 65 157t156 65h46v0q-60 32 -95.5 90.5t-35.5 126.5q0 105 76.5 177.5t182.5 66.5q98 -5 166 -78t66 -172q-2 -67 -36.5 -123.5t-93.5 -87.5v0h44q91 0 156 -65t65 -157v-22q0 -50 -35.5 -86t-86.5 -36zM255 293
q-74 0 -126 -52.5t-52 -126.5v-22q0 -32 23 -55t55 -23h519q33 0 56 23t23 55v22q0 74 -52.5 126.5t-125.5 52.5h-65q-9 0 -15.5 6t-6.5 15v36q0 13 13 19q53 24 84.5 72t32.5 107q2 81 -54 141.5t-137 64.5q-87 5 -150 -54.5t-63 -146.5q0 -60 32 -109.5t86 -74.5
q12 -6 12 -19v-36q0 -9 -6 -15t-15 -6h-68zM890 88h-39q-9 0 -15.5 6.5t-6.5 15.5t6.5 15t15.5 6h39q24 0 40.5 17t16.5 41v17q0 57 -39.5 96.5t-96.5 39.5h-51q-9 0 -15.5 6.5t-6.5 15.5v28q0 14 13 20q40 18 64.5 55t25.5 82q1 62 -42 108.5t-105 49.5q-15 1 -35 -4
q-9 -2 -16.5 3t-9.5 13.5t3 16t13 9.5q26 6 48 5q79 -4 134 -63.5t53 -139.5q-1 -50 -25 -92.5t-66 -69.5h18q74 0 126.5 -52.5t52.5 -126.5v-17q0 -42 -29.5 -71.5t-70.5 -29.5z" />
    <glyph glyph-name="canyu1" unicode="&#xe64d;" 
d="M630 266q-3 1 -7 3t-10 9t-9 16t-2 26t7 37v0q49 49 80.5 121t31.5 146q0 111 -66 173.5t-163 62.5t-162.5 -62.5t-65.5 -173.5q0 -74 31 -146.5t81 -121.5q7 -24 7 -40t-9 -27.5t-15.5 -16t-11.5 -6.5q-70 -25 -130.5 -56.5t-105 -73t-44.5 -80.5v-30q0 -137 426 -137
q424 0 424 137v30q0 40 -45 82t-107 73t-135 55v0z" />
    <glyph glyph-name="saomayanzheng" unicode="&#xe6e2;" horiz-adv-x="1025" 
d="M199 441h-199v-114h199v114v0zM0 -128h398v398h-398v-398v0zM114 156h170v-170h-170v170v0zM398 896h-398v-398h398v398v0zM284 612h-170v170h170v-170v0zM740 156h113v114h-227v-227h114v113v0v0zM825 327h199v114h-199v-114v0zM910 -14h-284v-114h398v398h-114v-284v0z
M626 896v-398h398v398h-398v0zM910 612h-170v170h170v-170v0zM455 441h-142v-114h142v-171h114v456h-114v-171v0v0zM455 725h114v171h-114v-171v0zM455 -128h114v171h-114v-171v0z" />
    <glyph glyph-name="email4" unicode="&#xe6d9;" 
d="M748 273q0 -33 10 -46.5t34 -13.5q54 0 85.5 64.5t31.5 177.5q0 84 -29.5 150t-81.5 107.5t-120 62.5t-148 21q-82 0 -155.5 -27.5t-131.5 -78.5t-91.5 -132t-33.5 -181q0 -193 117 -298.5t319 -105.5q67 0 120 9t122 32l20 -83q-118 -38 -264 -38q-255 0 -393.5 130
t-138.5 354q0 146 66 260t182.5 176t263.5 62q112 0 203 -32t149 -88.5t88.5 -130.5t30.5 -159q0 -338 -249 -338q-66 0 -105 27.5t-45 82.5q-16 -60 -56.5 -85t-104.5 -25q-85 0 -141 64.5t-56 183.5q0 126 57.5 198t162.5 72q109 0 143 -76l36 65h103v-361v0zM597 435
q0 47 -28.5 71.5t-63.5 24.5q-40 0 -68 -35t-28 -110q0 -64 26 -99t70 -35q35 0 63.5 24t28.5 73v86z" />
    <glyph glyph-name="zeng011" unicode="&#xe654;" 
d="M498 894q-100 0 -191.5 -39.5t-158 -106t-105.5 -158.5t-39 -193t39 -193t105.5 -158.5t158 -106t191.5 -39.5t191.5 39.5t158 106t105.5 158.5t39 193t-39 193t-105.5 158.5t-158 106t-191.5 39.5v0zM498 -35q-116 0 -215.5 58t-157 157.5t-57.5 217t57.5 217t157 157.5
t216 58t215.5 -58t156.5 -157.5t57.5 -217t-57.5 -217t-156.5 -157.5t-216 -58v0zM336 367v184h42v-184q0 -29 -2 -56q51 -60 100 -114l-54 -40q-9 13 -26 38q-25 33 -36 53q-27 -65 -80 -114q-12 21 -38 63q94 72 94 170v0zM315 302h-51v332h185v-330h-51v271h-83v-273v0z
M498 640l58 21q2 -5 11 -18q11 -23 20 -38h47q13 24 27 56q9 -3 24 -7q11 -5 40 -11q-6 -7 -18 -23q-6 -11 -11 -15h58v-211h-287v211h56q-5 6 -12 17q-8 14 -13 18v0zM543 136h-63v236h259v-236h-63v23h-133v-23v0zM518 551v-103h69v103h-69v0zM523 524l29 13q4 -6 13 -27
q11 -22 18 -38q-7 -2 -20 -6q-7 -5 -11 -7q-3 7 -9 18q-5 13 -20 47v0zM676 289v31h-133v-31h133v0zM543 239v-33h133v33h-133v0zM634 448h67v103h-67v-103v0zM667 537l32 -11q-16 -29 -34 -67q-13 11 -29 13q7 13 16 34l15 31v0z" />
    <glyph glyph-name="zengdianji" unicode="&#xe655;" 
d="M498 894q-100 0 -191.5 -39.5t-158 -106t-105.5 -158.5t-39 -193t39 -193t105.5 -158.5t158 -106t191.5 -39.5t191.5 39.5t158 106t105.5 158.5t39 193t-39 193t-105.5 158.5t-158 106t-191.5 39.5zM543 136h-63v236h259v-236h-63v23h-133v-23zM498 640l58 21
q2 -5 11 -18q11 -23 20 -38h47q13 24 27 56q9 -3 24 -7q11 -5 40 -11q-6 -7 -18 -23q-6 -11 -11 -15h58v-211h-287v211h56q-5 6 -12 17q-8 14 -13 18zM315 302h-51v332h185v-330h-51v271h-83v-273zM336 367v184h42v-184q0 -29 -2 -56q51 -60 100 -114l-54 -40q-9 13 -26 38
q-25 33 -36 53q-27 -65 -80 -114q-12 21 -38 63q94 72 94 170zM518 551v-103h69v103h-69zM634 448h67v103h-67v-103zM543 239v-33h133v33h-133zM676 289v31h-133v-31h133zM523 524l29 13q4 -6 13 -27q11 -22 18 -38q-7 -2 -20 -6q-7 -5 -11 -7q-3 7 -9 18q-5 13 -20 47z
M667 537l32 -11q-16 -29 -34 -67q-13 11 -29 13q7 13 16 34z" />
    <glyph glyph-name="liulan2" unicode="&#xe6a7;" 
d="M1010 415q-94 142 -224.5 219.5t-273.5 77.5t-273.5 -77.5t-224.5 -218.5q-5 -8 -5 -17v-34q0 -9 5 -17q94 -141 224.5 -219t273.5 -78t273.5 78t224.5 220q5 7 5 16v33q0 10 -5 17zM982 375q-90 -132 -213 -204.5t-257 -72.5t-257 72t-213 204v16q90 131 213 203.5
t257 72.5t257 -72.5t213 -204.5v-14zM512 580q-82 0 -140 -58t-58 -140t58 -140t140 -58q45 0 86 19q9 5 12.5 15t-1 19.5t-14.5 13t-19 -0.5q-30 -15 -64 -15q-60 0 -103 43t-43 104t43 104t103.5 43t103.5 -43t43 -104q0 -21 -6 -40q-3 -11 2 -20t15.5 -12t20 2t12.5 15
q7 27 7 55q0 82 -58 140t-140 58zM419 418q-7 -17 -7 -36q0 -5 4 -9t9.5 -4t9 4t3.5 9q0 14 5 27q8 21 27 34t42 13q5 0 9 4t4 9t-4 9t-9 4q-31 0 -56.5 -17.5t-36.5 -46.5z" />
    <glyph glyph-name="liulan3" unicode="&#xe647;" 
d="M924 513q-35 58 -100 102q-132 91 -318 91q-150 0 -269 -62q-58 -29 -100 -70q-44 -42 -66 -92q-5 -11 -0.5 -22.5t15.5 -16.5t22.5 -0.5t16.5 15.5q36 81 139 134q107 55 242 55q167 0 285 -81q54 -37 83 -84t29 -98t-29 -98t-83 -85q-118 -80 -285 -80q-68 0 -131 15
q-76 17 -135 53q-89 54 -119 130q-4 11 -15.5 16t-23 0.5t-16 -16t-0.5 -22.5q37 -95 143 -158q68 -41 152 -61q70 -16 145 -16q186 0 318 91q65 44 100 101q38 62 38 130t-38 129zM506 218q43 0 81 22q37 20 59 56q25 40 25 88t-26 89q-23 36 -60 56t-79 20
q-69 0 -117.5 -48.5t-48.5 -117t48.5 -117t117.5 -48.5zM506 490q58 0 90 -49q16 -26 16 -57t-16 -56q-15 -24 -38.5 -37.5t-51.5 -13.5q-44 0 -75.5 31.5t-31.5 75.5t31.5 75t75.5 31z" />
    <glyph glyph-name="denglututu" unicode="&#xe665;" 
d="M902 833h-778q-24 0 -41 -17t-17 -41v-780q0 -24 17 -41t41 -17h778q24 0 41 17t17 41v780q0 24 -17 41t-41 17zM505.5 736q83.5 0 142.5 -56t59 -135t-59 -135t-142.5 -56t-142.5 56t-59 135t59 135t142.5 56zM842 70q0 -17 -8 -29.5t-28.5 -20t-38.5 -12t-53.5 -6.5
t-58 -2.5t-67.5 -0.5h-150q-46 0 -69 0.5t-59 2.5t-53.5 6.5t-37 12t-27.5 20t-8 29.5v14q0 100 74.5 170.5t179.5 70.5h150q105 0 179.5 -70.5t74.5 -170.5v-14z" />
    <glyph glyph-name="partake" unicode="&#xe64e;" 
d="M1002 -2v0q0 6 -2 10q-17 134 -117 224q-51 47 -117 72q57 34 91 92.5t34 127.5q0 106 -75.5 181.5t-182 75.5t-182 -75.5t-75.5 -181.5q0 -69 34 -127t91 -93q-64 -24 -117 -72q-99 -90 -117 -222q-2 -7 -2 -10v-4q0 -13 9 -22t22 -9t22 9t9 22v4v4q16 110 98 184
t192 80h16h16q111 -6 193 -80.5t98 -184.5v0v-3v-4q0 -13 9 -22t22 -9t22 9t9 22v2v0zM436 525q0 81 58 138.5t139.5 57.5t139 -57.5t57.5 -138.5q0 -77 -51.5 -133t-126.5 -63h-19h-18q-75 6 -127 62.5t-52 133.5v0v0zM418 803h-2q-8 1 -24 1q-107 0 -182.5 -75.5
t-75.5 -182.5q0 -69 34 -127t91 -92q-63 -24 -117 -72q-98 -90 -116 -222q-3 -7 -3 -11v-3q0 -13 9.5 -22t22 -9t21.5 9t9 22v3v5q16 108 98 182.5t192 80.5h2h3q13 0 22 9t9 22q0 18 -16 28q-5 3 -11 3h-2h-5h-2q-76 7 -127.5 63t-51.5 133v0q0 81 58 138.5t139 57.5l29 -1
q12 0 20.5 9t8.5 22q-2 12 -11.5 20.5t-21.5 8.5v0z" />
    <glyph glyph-name="zan-ok" unicode="&#xe641;" 
d="M968 322q36 41 36 111q0 20 -4.5 37.5t-12.5 31.5q-11 17 -28 26v0q-14 8 -30 10h-1h-6v0h-134q109 199 54 297q-17 31 -46.5 46t-57.5 15q-5 0 -9 -2q-7 -2 -11 -7q-2 0 -5 -8l-2 -9q-1 -16 -9 -38t-21 -45q-46 -81 -119 -135q68 65 63 57q-1 -3 -10 -12
q-104 -114 -246 -174q63 30 59 26q-10 -10 -91 -42q-19 -7 -37 -13q-9 19 -28 31.5t-41 12.5h-154q-32 0 -54.5 -22.5t-22.5 -54.5v-461q0 -32 22.5 -54.5t54.5 -22.5h154q15 0 29.5 6.5t25.5 17.5q16 18 21 41q6 -5 13.5 -9t12.5 -6.5t14 -5.5t12.5 -4t14 -3.5t11.5 -2.5
q36 -10 51.5 -17t40.5 -20q30 -17 49.5 -24.5t67 -15.5t113.5 -8q28 0 53 7t45 20q39 26 48 69q31 13 52 56q22 45 22 90v8q0 3 -1 6q17 12 26 31q0 -3 5 4q6 12 11 27q-4 -10 -5 -11q-1 -5 0 0q2 8 2 13q18 17 18 73q0 33 -12 54q-2 2 -2 3h-1v0z" />
    <glyph glyph-name="qian1" unicode="&#xe6e1;" 
d="M879 881h-138l-155 -286q-61 -116 -75 -154h-3q-41 93 -230 440h-146l271 -465h-222v-103h260v-142h-260v-104h260v-206h129v206h251v104h-251v142h251v103h-215z" />
    <glyph glyph-name="Email" unicode="&#xe66d;" horiz-adv-x="1228" 
d="M32 787q0 32 22.5 54.5t54.5 22.5h998q32 0 54.5 -22.5t22.5 -54.5v-806q0 -32 -22.5 -54.5t-54.5 -22.5h-998q-32 0 -54.5 22.5t-22.5 54.5v806zM128 0h960v768h-960v-768zM823 423q5 -3 9 -8l333 -398q11 -13 11 -31q0 -19 -14 -33.5t-34 -14.5q-23 0 -37 18l-333 397
q-8 10 -10 23l-111 -97q-12 -10 -29 -10t-30 10l-111 87q-3 -7 -8 -13l-333 -397q-14 -18 -36 -18q-20 0 -34 14.5t-14 33.5q0 18 11 31l332 398q4 4 9 8l-334 259q-18 15 -18 38q0 20 14 34t34 14q16 0 29 -10l489 -380l489 380q13 10 29 10q20 0 34 -14t14 -34
q0 -23 -18 -38l-333 -259v0z" />
    <glyph glyph-name="denglumima2" unicode="&#xe666;" 
d="M523 375zM31 375q0 -100 39 -191.5t105 -157.5t157 -105t191.5 -39t191.5 39t157 105t105 157.5t39 191.5t-39 191t-105 157t-157 105t-191.5 39t-191.5 -39t-157 -105t-105 -157t-39 -191zM707 475h-351v67q0 63 47 106.5t115 43.5q67 0 111.5 -43t44.5 -107v-34
q0 -7 5 -11.5t12 -4.5t11.5 4.5t4.5 11.5v34q0 78 -53.5 130.5t-134.5 53.5h-2q-82 -1 -138 -54t-56 -130v-69q-43 -6 -71.5 -38.5t-28.5 -76.5v-217q0 -49 34 -83t83 -34h367q49 0 83 34t34 83v217q0 48 -34 82.5t-83 34.5zM791 141q0 -35 -24.5 -59.5t-59.5 -24.5h-367
q-35 0 -59.5 24.5t-24.5 59.5v217q0 35 24.5 59.5t59.5 24.5h367q35 0 59.5 -24.5t24.5 -59.5v-217zM523.5 375q-41.5 0 -71 -29.5t-29.5 -71.5q0 -37 24 -64.5t60 -33.5v-0.5v-1.5v-50v0q0 -7 5 -12t11 -5v0v0q7 0 12 5t5 12v0v50v1.5v0.5q36 6 60 33.5t24 64.5
q0 42 -29.5 71.5t-71 29.5zM523.5 208q-27.5 0 -47 19.5t-19.5 47t19.5 47t47 19.5t47 -19.5t19.5 -47t-19.5 -47t-47 -19.5z" />
    <glyph glyph-name="tupianyanzhengma1" unicode="&#xe67c;" 
d="M320 591h-128q-13 0 -22.5 -9t-9.5 -22.5t9.5 -23t22.5 -9.5h128q13 0 22.5 9.5t9.5 23t-9.5 22.5t-22.5 9zM576 591h-128q-13 0 -22.5 -9t-9.5 -22.5t9.5 -23t22.5 -9.5h128q13 0 22.5 9.5t9.5 23t-9.5 22.5t-22.5 9zM832 591h-128q-13 0 -22.5 -9t-9.5 -22.5t9.5 -23
t22.5 -9.5h128q13 0 22.5 9.5t9.5 23t-9.5 22.5t-22.5 9zM320 417h-128q-13 0 -22.5 -9.5t-9.5 -23t9.5 -22.5t22.5 -9h128q13 0 22.5 9t9.5 22.5t-9.5 23t-22.5 9.5zM576 417h-128q-13 0 -22.5 -9.5t-9.5 -23t9.5 -22.5t22.5 -9h128q13 0 22.5 9t9.5 22.5t-9.5 23
t-22.5 9.5zM832 417h-128q-13 0 -22.5 -9.5t-9.5 -23t9.5 -22.5t22.5 -9h128q13 0 22.5 9t9.5 22.5t-9.5 23t-22.5 9.5zM320 241h-128q-13 0 -22.5 -9.5t-9.5 -23t9.5 -22.5t22.5 -9h128q13 0 22.5 9t9.5 22.5t-9.5 23t-22.5 9.5zM576 241h-128q-13 0 -22.5 -9.5t-9.5 -23
t9.5 -22.5t22.5 -9h128q13 0 22.5 9t9.5 22.5t-9.5 23t-22.5 9.5zM832 241h-128q-13 0 -22.5 -9.5t-9.5 -23t9.5 -22.5t22.5 -9h128q13 0 22.5 9t9.5 22.5t-9.5 23t-22.5 9.5zM862 800h-700q-54 0 -92 -36.5t-38 -88.5v-582q0 -52 38 -88.5t92 -36.5h630q13 0 22.5 9.5
t9.5 22.5t-9.5 22.5t-22.5 9.5h-630q-27 0 -46.5 18t-19.5 43v582q0 25 19.5 43t46.5 18h700q27 0 46.5 -18t19.5 -43v-515q0 -13 9.5 -22.5t22.5 -9.5t22.5 9.5t9.5 22.5v515q0 52 -38 88.5t-92 36.5z" />
    <glyph glyph-name="email5" unicode="&#xe698;" horiz-adv-x="1476" 
d="M1370 896h-1274q-39 0 -67.5 -28.5t-28.5 -67.5v-832q0 -39 28.5 -67.5t67.5 -28.5h1274q39 0 67.5 28.5t28.5 67.5v832q0 39 -28.5 67.5t-67.5 28.5zM1392 785v-802l-456 397zM751 307q-7 0 -14 -8q-4 0 -7.5 2t-5.5 4l-2 2l-589 515h1186zM567 343l103 -88l15 -15
q7 0 22 -3.5t22 -3.5h8q37 0 59 22l88 81l442 -390h-1193zM516 395l-442 -405v795z" />
    <glyph glyph-name="iconfontwodea-copy-copy" unicode="&#xe65f;" horiz-adv-x="1025" 
d="M512 896q-139 0 -257 -68.5t-186.5 -186.5t-68.5 -257t68.5 -257t186.5 -186.5t257 -68.5t257 68.5t186.5 186.5t68.5 257t-68.5 257t-186.5 186.5t-257 68.5v0v0zM203 43q37 95 121 154t188 59t188 -59t121 -154q-62 -57 -141.5 -88.5t-167.5 -31.5t-167 31.5t-142 88.5
v0v0v0zM358 461q0 63 45 108t109 45t109 -45t45 -108.5t-45 -108.5t-109 -45t-109 45t-45 109v0v0zM860 82q-34 75 -95.5 129.5t-139.5 78.5q42 28 67 73t25 98q0 85 -60 145t-145 60t-145 -60t-60 -145q0 -53 25 -98t67 -73q-78 -24 -139.5 -78.5t-95.5 -129.5
q-113 130 -113 302q0 94 36.5 179t98.5 147t147 98.5t179 36.5t179 -36.5t147 -98.5t98.5 -147t36.5 -179q0 -171 -113 -302v0v0zM860 82z" />
    <glyph glyph-name="yanzhengma1" unicode="&#xe67d;" 
d="M843 768h-662q-48 0 -82.5 -34.5t-34.5 -82.5v-534q0 -48 34.5 -82.5t82.5 -34.5h662q48 0 82.5 34.5t34.5 82.5v534q0 48 -34.5 82.5t-82.5 34.5zM288 608q27 0 45.5 -18.5t18.5 -45.5t-18.5 -45.5t-45.5 -18.5t-45.5 18.5t-18.5 45.5t18.5 45.5t45.5 18.5zM832 160
q0 -13 -9.5 -22t-22.5 -9l-574 -1v0q-17 0 -26 12q-10 13 -5 29q3 9 8 22.5t21.5 44.5t35.5 54.5t50 42.5t65 19q38 -1 96 -18q68 -20 110 -14q14 3 22.5 17.5t20.5 52.5q8 26 13.5 40.5t19.5 39t30.5 38t45.5 24.5t65 11q14 0 23 -9.5t9 -22.5l2 -127v-224z" />
    <glyph glyph-name="jianpan2" unicode="&#xe67f;" 
d="M870 487v101h-101v-101h101zM870 334v101h-101v-101h101zM716 487v101h-101v-101h101zM716 334v101h-101v-101h101zM716 127v103h-408v-103h408zM255 487v101h-101v-101h101zM255 334v101h-101v-101h101zM308 434v-101h101v101h-101zM308 588v-101h101v101h-101zM462 434
v-101h100v101h-100zM462 588v-101h100v101h-100zM923 742q41 0 71 -30t30 -71v-514q0 -41 -30 -71t-71 -30h-822q-41 0 -71 30t-30 71v514q0 41 30 71t71 30h822z" />
  </font>
</defs>
</svg>
